<svg version="1.1" width="220" height="40" viewBox="0 0 220 40" xmlns="http://www.w3.org/2000/svg" xmlns:xlink="http://www.w3.org/1999/xlink" fill="none" overflow="hidden"><path d=" M 61.1558 1.67151 C 61.0338 2.59102 60.7902 3.73891 60.6145 4.22277 C 60.4387 4.70663 60.0591 6.60687 59.7712 8.44554 C 59.4835 10.2842 59.0841 12.5803 58.8835 13.5481 C 58.6832 14.5158 58.3652 16.416 58.1772 17.7708 C 57.9891 19.1256 57.6117 21.1842 57.3387 22.3455 C 57.0655 23.5067 56.7366 25.4468 56.6076 26.6562 L 56.3731 28.8556 L 57.9447 28.8556 L 59.5167 28.8556 L 60.0371 26.3043 C 60.583 23.6299 62.1476 15.2738 62.7222 11.9645 C 63.1094 9.73524 63.7322 6.36125 64.0859 4.57467 L 64.3298 3.34303 L 67.862 3.24309 C 71.6906 3.13505 71.8004 3.06679 71.814 0.791769 C 71.8189 0.00563037 71.7808 0 66.598 0 L 61.3774 0 L 61.1558 1.67151 Z M 163.918 0.687608 C 163.804 0.872354 163.818 1.466 163.948 2.00722 C 164.55 4.51238 166.671 5.89956 169.176 5.42626 C 170.938 5.09336 173.169 2.84826 173.169 1.40759 C 173.169 0.435649 173.072 0.351897 171.946 0.351897 C 171.273 0.351897 170.723 0.525383 170.723 0.737577 C 170.723 0.94942 170.397 1.58283 170 2.14517 C 168.801 3.84096 166.529 3.22655 166.529 1.20666 C 166.529 0.46732 166.367 0.351897 165.326 0.351897 C 164.665 0.351897 164.031 0.502862 163.918 0.687608 Z M 73.8284 7.79875 C 73.3 7.99335 72.8674 8.29739 72.8674 8.47475 C 72.8674 8.6521 72.6702 8.79744 72.4295 8.79744 C 71.3087 8.79744 69.1457 12.0528 67.9896 15.4786 C 66.9716 18.4954 66.8741 23.8506 67.8012 25.8177 C 68.8158 27.9702 70.2801 28.8556 72.8268 28.8556 C 75.4605 28.8556 77.9698 27.7746 77.5746 26.81 C 77.4407 26.4834 77.2488 25.9264 77.1482 25.572 C 77.0154 25.1054 76.7617 24.9893 76.2266 25.1505 C 72.6818 26.2199 71.3132 25.6815 70.7603 22.9997 C 70.2882 20.7099 70.5422 19.7063 71.5942 19.7063 C 73.0456 19.7063 76.3832 18.6562 77.4456 17.8651 C 79.4411 16.3794 80.0636 14.6467 79.906 11.0151 C 79.8455 9.62158 78.5744 8.1788 77.0098 7.72696 C 75.6098 7.32263 75.0915 7.33425 73.8284 7.79875 Z M 120.572 7.57706 C 120.38 7.63371 119.813 7.7706 119.312 7.88074 C 118.206 8.12461 115.884 10.2733 114.865 11.9965 C 113.419 14.4422 112.58 17.8887 112.556 21.4721 C 112.521 26.7206 113.883 28.9175 117.197 28.9576 C 119.022 28.9798 120.647 28.2567 121.949 26.8427 C 125.376 23.1214 127.144 13.9144 125.198 9.92421 C 124.474 8.43745 121.966 7.16534 120.572 7.57706 Z M 191.819 7.75864 C 190.622 8.00954 188.546 9.35308 188.546 9.87706 C 188.546 10.5946 187.633 10.1146 186.969 9.04763 C 186.404 8.1408 185.997 7.89552 184.906 7.80509 C 182.92 7.6411 182.068 7.95429 180.671 9.36118 L 179.422 10.6185 L 179.528 9.26828 L 179.635 7.91769 L 178.237 7.91769 L 176.839 7.91769 L 176.603 10.3229 C 176.473 11.6457 176.262 12.9917 176.134 13.314 C 176.005 13.6364 175.694 15.1668 175.442 16.7151 C 175.189 18.2635 174.65 21.4249 174.242 23.7404 C 173.835 26.0559 173.579 28.1543 173.674 28.403 C 173.77 28.6543 174.399 28.8556 175.089 28.8556 C 176.661 28.8556 176.854 28.3981 177.759 22.5214 C 178.684 16.5195 179.571 13.7849 181.172 12.0036 C 182.712 10.2902 183.874 10.0928 184.221 11.4856 C 184.504 12.6187 183.76 19.0362 183.292 19.5078 C 183.106 19.6943 182.952 20.3302 182.949 20.9203 C 182.946 21.5104 182.662 23.3783 182.318 25.0709 C 181.623 28.4949 181.739 28.8556 183.537 28.8556 C 184.901 28.8556 185.219 28.3545 185.542 25.6885 C 185.671 24.624 185.925 23.278 186.107 22.6974 C 186.288 22.1168 186.583 20.5881 186.761 19.3005 C 187.21 16.068 188.441 12.8555 189.711 11.6059 C 191.713 9.63425 192.902 10.4566 192.626 13.6227 C 192.4 16.2144 191.157 23.8048 190.67 25.572 C 190.465 26.3135 190.297 27.3555 190.296 27.8879 C 190.294 28.7803 190.401 28.8556 191.671 28.8556 C 192.429 28.8556 193.176 28.6578 193.331 28.4157 C 193.594 28.0075 194.168 25.0706 195.344 18.1227 C 195.605 16.5744 195.968 14.489 196.149 13.4886 C 196.387 12.1788 196.356 11.31 196.041 10.3859 C 195.234 8.02291 194.056 7.28991 191.819 7.75864 Z M 85.5323 8.18162 C 85.3387 8.42372 84.9965 9.80914 84.7715 11.2607 C 84.5464 12.7123 84.2196 14.375 84.0449 14.9556 C 83.8702 15.5363 83.55 17.174 83.333 18.595 C 82.8273 21.9067 81.4615 24.6304 79.9521 25.3366 C 78.9344 25.8127 78.8229 26.0158 78.8163 27.4061 L 78.8086 28.9478 L 80.1164 28.7338 C 80.8356 28.6163 81.4779 28.3584 81.5433 28.1602 C 81.609 27.9621 81.8582 27.7999 82.0969 27.7999 C 83.168 27.7999 85.1115 24.6367 86.0338 21.3922 C 86.3249 20.3682 86.8526 17.8109 87.2063 15.7091 C 87.56 13.6075 87.9336 11.6675 88.036 11.3983 C 88.1611 11.07 88.8017 10.9088 89.9812 10.9088 C 91.6933 10.9088 91.7395 10.9359 91.7395 11.9416 C 91.7395 12.5096 91.5906 13.3682 91.4089 13.85 C 91.2271 14.3314 90.8326 16.2816 90.5324 18.1836 C 90.2322 20.0856 89.7604 22.8293 89.4836 24.2809 C 89.2068 25.7325 88.9723 27.3555 88.9621 27.8879 C 88.945 28.7803 89.0488 28.8556 90.2989 28.8556 C 91.044 28.8556 91.8118 28.6575 92.0047 28.4157 C 92.3378 27.9984 93.1224 23.9424 94.5399 15.3075 C 94.8894 13.1786 95.3573 10.8286 95.5796 10.085 C 96.2681 7.78292 96.1828 7.74174 90.7448 7.74174 C 87.2766 7.74174 85.7832 7.86772 85.5323 8.18162 Z M 99.5931 8.18162 C 99.3666 8.79427 98.8211 11.5704 98.1923 15.3075 C 97.8995 17.0494 97.4273 19.5039 97.1432 20.7619 C 96.4809 23.694 96.4953 24.9773 97.2106 26.778 C 97.926 28.5783 99.3533 29.3092 101.294 28.8686 C 102.658 28.5586 104.255 27.6503 104.849 26.8466 C 105.112 26.4908 105.202 26.6643 105.199 27.524 C 105.195 28.5808 105.296 28.6895 106.375 28.7933 C 107.024 28.8556 107.71 28.7511 107.899 28.5607 C 108.088 28.3707 108.616 25.7065 109.072 22.6411 C 109.529 19.5754 110.126 15.8794 110.398 14.4278 C 110.671 12.9762 110.949 10.9176 111.015 9.85313 L 111.136 7.91769 L 109.662 7.81001 C 108.072 7.69389 108.115 7.63829 107.69 10.381 C 106.23 19.8171 105.265 23.2171 103.621 24.7208 C 102.537 25.7114 101.056 25.9964 100.627 25.2969 C 100.25 24.6824 100.427 21.2715 100.959 18.8856 C 101.226 17.692 101.637 15.3691 101.872 13.724 C 102.108 12.0789 102.458 10.3004 102.651 9.77149 C 103.194 8.28507 102.799 7.74174 101.176 7.74174 C 100.359 7.74174 99.6864 7.9286 99.5931 8.18162 Z M 130.915 11.8674 C 130.484 14.1466 130.059 16.4864 129.971 17.067 C 129.624 19.3347 128.352 23.4385 127.776 24.1493 C 127.443 24.5607 126.652 25.1677 126.017 25.4978 C 124.996 26.0295 124.889 26.2206 125.077 27.1689 C 125.194 27.758 125.29 28.3784 125.29 28.5477 C 125.29 29.129 126.703 28.8549 128.019 28.0181 C 129.365 27.163 131.231 24.9946 131.231 24.2869 C 131.231 24.0708 131.458 23.4519 131.736 22.9113 C 132.193 22.021 132.749 19.5134 133.695 14.0759 C 134.253 10.8676 134.481 10.5569 136.271 10.5569 C 137.128 10.5569 137.901 10.6755 137.987 10.8208 C 138.144 11.083 137.556 14.8173 136.617 19.5303 C 135.633 24.4752 135.113 28.3306 135.394 28.6135 C 135.553 28.7732 136.289 28.8531 137.029 28.7915 L 138.377 28.6796 L 138.801 26.2164 C 139.034 24.8616 139.544 22.0904 139.934 20.0582 C 141.193 13.4882 141.662 10.7614 141.777 9.32528 L 141.89 7.91769 L 136.794 7.82057 L 131.697 7.72345 L 130.915 11.8674 Z M 149.577 8.56026 C 148.807 8.98113 147.785 9.72996 147.306 10.2247 C 146.16 11.4061 144.512 13.9394 144.512 14.5179 C 144.512 14.7691 144.301 15.2875 144.043 15.6689 C 142.954 17.2827 142.39 23.5008 143.105 26.0112 C 143.668 27.9875 144.734 28.8556 146.596 28.8556 C 147.991 28.8556 148.42 28.6631 149.768 27.4318 L 151.326 26.008 L 151.435 27.4519 C 151.542 28.8841 151.554 28.8947 152.833 28.7877 L 154.122 28.6796 L 154.381 26.3923 C 154.881 21.9823 156.176 14.2624 156.707 12.5349 C 157.399 10.2807 157.542 8.37375 157.044 8.05564 C 156.782 7.88884 155.311 7.76215 153.773 7.77377 C 151.592 7.79031 150.669 7.96344 149.577 8.56026 Z M 161.163 8.0113 C 161.072 8.15945 160.826 9.52164 160.616 11.0383 C 160.407 12.555 160.156 13.9249 160.06 14.0822 C 159.963 14.2399 159.554 16.3217 159.152 18.709 C 157.861 26.3624 158.624 28.9844 162.123 28.9137 C 163.718 28.8816 165.579 27.9262 166.348 26.7442 C 166.616 26.3325 166.731 26.4877 166.872 27.448 C 167.038 28.5772 167.152 28.6796 168.237 28.6796 C 169.365 28.6796 169.44 28.598 169.86 26.9202 C 170.101 25.9524 170.409 24.1314 170.542 22.8733 C 170.676 21.6153 170.943 19.8734 171.136 19.0025 C 171.629 16.7693 172.843 9.85031 172.925 8.79744 C 172.99 7.97998 172.884 7.91769 171.435 7.91769 C 169.989 7.91769 169.858 7.99441 169.633 8.97338 C 169.144 11.1133 168.566 14.3374 168.101 17.5315 C 167.837 19.3354 167.477 20.9981 167.299 21.2265 C 167.121 21.4548 166.88 22.0376 166.765 22.5214 C 166.649 23.0053 166.077 23.9259 165.493 24.567 C 164.638 25.5055 164.209 25.7114 163.296 25.6227 C 162.19 25.5154 162.158 25.4651 162.055 23.6764 C 161.997 22.6664 162.127 21.0037 162.343 19.9814 C 162.559 18.9592 162.954 16.7876 163.222 15.1559 C 163.49 13.5241 163.872 11.7189 164.07 11.1446 C 164.269 10.5699 164.432 9.5695 164.432 8.92095 C 164.432 7.7604 164.408 7.74174 162.88 7.74174 C 162.026 7.74174 161.254 7.86315 161.163 8.0113 Z M 153.382 10.489 C 153.752 11.0918 151.94 20.1525 151.037 22.2149 C 150.223 24.0772 148.758 25.6892 147.888 25.6832 C 146.335 25.672 146.086 25.1874 146.135 22.2719 C 146.203 18.197 147.863 13.818 150.181 11.601 C 151.4 10.4341 153.006 9.87671 153.382 10.489 Z M 76.3087 11.2139 C 77.2335 12.0215 77.2551 12.682 76.4024 14.0938 C 75.4979 15.5912 74.5945 16.1553 72.6755 16.4202 C 71.071 16.6416 71.0441 16.6296 71.2996 15.8009 C 71.9692 13.6272 73.2284 11.6946 74.331 11.1471 C 74.9678 10.8314 75.5039 10.5692 75.5224 10.565 C 75.5409 10.5604 75.8949 10.8525 76.3087 11.2139 Z M 121.892 11.2646 C 123.231 12.839 122.013 21.5016 120.066 24.2549 C 118.497 26.4736 116.814 26.5148 116.216 24.3485 C 115.728 22.5791 115.763 20.9506 116.355 17.8324 C 116.941 14.7526 117.978 12.4617 119.29 11.3505 C 120.444 10.3729 121.115 10.3507 121.892 11.2646 Z M 18.6974 29.8472 C 18.6974 30.3512 24.2042 30.7868 43.8602 31.8379 C 49.3384 32.1307 55.5504 32.5269 57.6648 32.718 C 59.7792 32.9091 65.9913 33.2328 71.4694 33.4373 C 76.9476 33.6421 84.0246 33.9701 87.1962 34.1664 C 110.924 35.636 170.158 36.2194 198.286 35.2605 C 210.932 34.8294 211.847 34.7537 214.362 33.9328 C 215.829 33.4538 217.525 32.8282 218.131 32.5424 C 218.736 32.2567 219.405 32.0227 219.616 32.0227 C 219.827 32.0227 220 31.5444 220 30.9603 C 220 30.0429 219.893 29.9211 219.214 30.0675 C 217.679 30.3987 210.99 30.9529 203.94 31.3329 C 200.008 31.5448 196.681 31.7865 196.547 31.8699 C 196.413 31.9537 188.778 32.2686 179.581 32.5702 C 164.538 33.0636 112.773 33.3599 112.082 32.957 C 111.946 32.8778 104.6 32.705 95.7585 32.5727 C 86.9166 32.4404 76.6942 32.1821 73.0421 31.9987 C 69.39 31.8154 60.3303 31.4332 52.9097 31.1493 C 45.4888 30.8653 36.9177 30.4789 33.8629 30.2906 C 22.4889 29.5893 18.6974 29.4784 18.6974 29.8472 Z M 1.39793 30.9635 C 3.23238 31.3196 5.52743 31.549 11.8824 32.0114 C 14.7657 32.2211 18.3828 32.5445 19.9206 32.7296 C 21.4583 32.9151 25.4686 33.2378 28.8324 33.4471 C 32.1962 33.6565 36.5997 33.9789 38.618 34.1633 C 40.6362 34.3477 44.5679 34.6499 47.355 34.8347 C 50.1422 35.0198 56.6688 35.4962 61.8586 35.8935 C 67.0485 36.2912 74.0469 36.768 77.4106 36.9531 C 80.7744 37.1386 86.1215 37.4433 89.2931 37.6305 C 96.7836 38.0728 108.981 38.6908 117.776 39.0736 C 131.881 39.6873 168.11 40.1723 182.605 39.9414 C 196.905 39.7134 197.55 39.674 199.905 38.8836 C 201.25 38.4321 202.862 37.9578 203.487 37.8297 C 204.112 37.7019 204.623 37.469 204.623 37.3124 C 204.623 37.1558 205.146 36.9288 205.785 36.8081 C 206.425 36.6871 207.25 36.358 207.62 36.0762 C 208.257 35.5909 208.237 35.5635 207.244 35.5557 C 206.667 35.5515 202.893 35.7802 198.856 36.0646 C 177.614 37.5612 133.333 37.6404 102.748 36.237 C 98.135 36.0251 89.0135 35.6275 82.4782 35.3527 C 75.9428 35.0782 66.5068 34.619 61.5091 34.3325 C 56.5115 34.0461 51.0072 33.7399 49.2772 33.652 C 47.5473 33.5643 43.7728 33.3212 40.8896 33.1121 C 38.0064 32.9028 32.4234 32.5748 28.4829 32.383 C 24.5425 32.1912 20.2176 31.8777 18.8721 31.6863 C 16.2957 31.3199 3.78386 30.5778 1.39793 30.6499 L 0 30.6921 L 1.39793 30.9635 Z" fill="#FFFFFF" fill-rule="evenodd" clip-rule="evenodd"/></svg>