<svg version="1.1" width="36" height="46" viewBox="0 0 36 46" xmlns="http://www.w3.org/2000/svg" xmlns:xlink="http://www.w3.org/1999/xlink" fill="none" overflow="hidden"><path d=" M 3.09849 0.164418 C 2.06355 0.489647 0.886868 1.56879 0.433132 2.60882 C 0.0307921 3.53077 0.0097357 4.54181 0.00498099 23.0308 L 0 42.4828 L 0.509434 43.5313 C 0.80717 44.1443 1.42664 44.8747 2.0006 45.2899 L 2.98234 46 L 18 46 L 33.0177 46 L 33.9994 45.2899 C 34.5734 44.8747 35.1928 44.1443 35.4906 43.5313 L 36 42.4828 L 36 27.5675 L 36 12.6523 L 30.4961 12.6523 C 26.4471 12.6523 24.8914 12.5745 24.6113 12.3577 C 24.2744 12.0973 24.2235 11.3671 24.1716 6.05342 L 24.1132 0.0437533 L 13.9245 0.00392481 C 8.32076 -0.0179928 3.44898 0.0541231 3.09849 0.164418 Z M 26.2642 6.11469 L 26.2642 10.5312 L 30.3396 10.5312 C 32.5811 10.5312 34.4151 10.4506 34.4151 10.3521 C 34.4151 10.2533 32.5811 8.26615 30.3396 5.93558 L 26.2642 1.69841 L 26.2642 6.11469 Z M 25.0816 21.5034 C 25.7246 21.9722 25.7246 22.6575 25.0816 23.1263 C 24.6464 23.4437 23.345 23.4932 15.4442 23.4932 C 9.58053 23.4932 6.15306 23.4058 5.87185 23.2493 C 5.3083 22.9354 5.28113 21.7238 5.83019 21.391 C 6.08106 21.239 9.5923 21.1483 15.4023 21.1436 C 23.3486 21.1374 24.646 21.1857 25.0816 21.5034 Z M 21.5208 28.5743 C 21.7302 28.8371 21.7526 29.1225 21.5995 29.5759 L 21.3854 30.2099 L 13.7196 30.2719 C 5.65992 30.3372 5.43396 30.3103 5.43396 29.2856 C 5.43396 28.2239 5.56415 28.2067 13.6026 28.2067 C 20.234 28.2067 21.2658 28.2545 21.5208 28.5743 Z M 24.2414 35.2851 C 24.924 35.6655 24.8321 36.8778 24.0985 37.1682 C 23.2925 37.487 6.44649 37.4741 5.87185 37.154 C 5.3083 36.8401 5.28113 35.6285 5.83019 35.2957 C 6.37585 34.9648 23.6486 34.9549 24.2414 35.2851 Z" fill="#FFFFFF" fill-rule="evenodd" clip-rule="evenodd"/></svg>