<svg version="1.1" width="55" height="55" viewBox="0 0 55 55" xmlns="http://www.w3.org/2000/svg" xmlns:xlink="http://www.w3.org/1999/xlink" fill="none" overflow="hidden"><path d=" M 12.024 1.3988 C 10.2933 2.13619 8.8283 2.78882 8.76802 2.84906 C 8.70805 2.9096 8.99526 3.78986 9.40602 4.80543 L 10.1531 6.65193 L 8.45671 8.28956 L 6.7603 9.92689 L 5.11031 9.19405 C 4.20319 8.79115 3.34037 8.50146 3.1936 8.5508 C 3.04684 8.59984 2.2681 10.2036 1.46315 12.1148 L 0 15.5893 L 1.25671 16.1472 C 1.94775 16.4541 2.79278 16.8152 3.13424 16.9502 C 3.69267 17.1709 3.75053 17.4328 3.71256 19.562 L 3.67067 21.9282 L 1.88657 22.6468 C 0.905311 23.0419 0.0684108 23.3979 0.0271232 23.4378 C -0.0144657 23.4778 0.504491 24.8611 1.18046 26.5121 C 1.85643 28.163 2.52939 29.8152 2.67555 30.1833 L 2.94196 30.8532 L 4.61968 30.1076 C 5.54277 29.6977 6.46346 29.3772 6.66598 29.395 C 6.86819 29.4129 7.69666 30.1603 8.50674 31.0554 L 9.97953 32.6833 L 9.18632 34.5201 L 8.39342 36.3569 L 9.37106 36.7704 C 9.909 36.9981 11.4803 37.6722 12.8633 38.2685 C 14.246 38.8648 15.4837 39.2865 15.6139 39.206 C 15.7438 39.1252 16.1561 38.3024 16.5298 37.3777 L 17.2091 35.6958 L 19.6167 35.7833 L 22.0243 35.8705 L 22.6117 37.384 C 22.9351 38.2164 23.3061 39.0074 23.4362 39.1415 C 23.6499 39.3616 30.6914 36.738 30.6914 36.4384 C 30.6914 36.369 30.365 35.5057 29.9663 34.5201 L 29.2412 32.7275 L 30.8963 31.0648 L 32.5514 29.4023 L 34.3413 30.1821 C 35.3258 30.6107 36.204 30.8886 36.2929 30.799 C 36.3821 30.7097 37.1115 29.0899 37.9143 27.1995 L 39.3738 23.7623 L 38.2723 23.2426 C 37.6666 22.9568 36.8092 22.5933 36.3671 22.4346 C 35.5841 22.1537 35.5648 22.0865 35.6136 19.8081 L 35.664 17.4694 L 37.4722 16.7023 C 38.4667 16.2804 39.3145 15.9141 39.3557 15.8884 C 39.3973 15.8623 38.8784 14.4905 38.2024 12.8395 C 37.5264 11.1886 36.8535 9.5364 36.7073 9.16831 L 36.4409 8.49843 L 34.7632 9.24399 C 33.8401 9.65385 32.9194 9.97442 32.7169 9.95656 C 32.5147 9.9387 31.6862 9.19132 30.8761 8.29622 L 29.4033 6.66828 L 30.1851 4.8575 C 30.6152 3.8616 30.8508 2.97468 30.7089 2.88659 C 30.2909 2.62717 23.9899 0 23.7855 0 C 23.6828 0 23.2735 0.822448 22.876 1.82773 L 22.1533 3.65546 L 19.7611 3.56828 L 17.3688 3.4811 L 16.7034 1.81683 C 16.3378 0.901454 15.8433 0.131374 15.6046 0.105341 C 15.3662 0.0796112 13.7548 0.661712 12.024 1.3988 Z M 22.0421 14.7166 C 25.5606 16.5022 26.4969 20.445 24.1439 23.5683 C 22.0394 26.3616 17.3525 26.3616 15.2339 23.5683 C 12.2778 19.6703 14.8279 14.2568 19.6312 14.2341 C 20.4265 14.2301 21.5114 14.4475 22.0421 14.7166 Z M 44.5302 33.2588 C 44.1861 34.4127 44.1541 34.4332 42.4574 34.5876 C 41.5096 34.6742 40.2906 34.9751 39.7484 35.2569 C 38.7801 35.7597 38.7476 35.7549 37.9502 34.9872 C 37.5032 34.5574 37.0033 34.2056 36.8387 34.2056 C 36.6742 34.2056 36.0112 34.7493 35.365 35.414 L 34.1903 36.6224 L 35.0088 37.4803 L 35.827 38.3381 L 35.2038 39.7533 C 34.8611 40.5315 34.5004 41.8495 34.4021 42.6816 C 34.2909 43.6267 34.0773 44.1949 33.8335 44.1949 C 33.6186 44.1949 33.1081 44.3226 32.6988 44.4791 L 31.9547 44.763 L 32.4207 46.6201 C 32.9215 48.6174 32.8474 48.5774 34.9211 47.9644 C 35.2038 47.8812 35.591 48.1806 35.9168 48.7342 C 36.2098 49.2328 37.0418 50.1379 37.7657 50.7454 C 38.9206 51.7153 39.0477 51.9399 38.8042 52.5828 C 38.3242 53.8514 38.4872 54.1221 40.045 54.6418 C 41.8674 55.2499 42.3022 55.127 42.5391 53.9377 C 42.7043 53.1074 42.8489 53.0166 44.3148 52.8222 C 45.1924 52.706 46.4783 52.3633 47.1723 52.0609 L 48.4342 51.5106 L 49.1843 52.469 L 49.9347 53.4274 L 51.3767 51.9971 L 52.8188 50.5671 L 51.9768 49.6844 C 51.148 48.8153 51.1429 48.7863 51.638 47.8246 C 51.9147 47.287 52.3101 46.0147 52.5168 44.9967 C 52.8791 43.2132 52.933 43.1363 54.0074 42.8811 C 54.8395 42.6838 55.0851 42.4903 54.9754 42.1192 C 54.8943 41.8456 54.6695 40.9711 54.4754 40.1756 C 54.2054 39.0692 54.0074 38.7637 53.6328 38.8748 C 51.8002 39.4188 51.6504 39.3867 50.9554 38.2985 C 50.5811 37.7121 49.7608 36.8576 49.1331 36.3999 C 48.1681 35.6967 48.024 35.4506 48.2018 34.811 C 48.6249 33.2878 48.5249 33.1219 46.8634 32.5961 C 45.9786 32.3158 45.1704 32.0867 45.0673 32.0867 C 44.9642 32.0867 44.7225 32.614 44.5302 33.2588 Z M 44.9546 40.3699 C 46.277 40.9247 46.9653 42.0672 46.9653 43.7069 C 46.9653 46.9825 43.2633 48.3934 40.8994 46.019 C 39.2943 44.4068 39.8895 41.2965 41.9783 40.3826 C 43.1608 39.8653 43.7464 39.8626 44.9546 40.3699 Z" fill="#FFFFFF" fill-rule="evenodd" clip-rule="evenodd"/></svg>