<svg version="1.1" width="31" height="61" viewBox="0 0 31 61" xmlns="http://www.w3.org/2000/svg" xmlns:xlink="http://www.w3.org/1999/xlink" fill="none" overflow="hidden"><path d=" M 9.69195 0.451424 C 9.41473 0.730493 9.26437 2.18108 9.26437 4.57648 L 9.26437 8.27109 L 15.5 8.27109 L 21.7356 8.27109 L 21.7356 4.57648 C 21.7356 2.18108 21.5853 0.730493 21.308 0.451424 C 20.7101 -0.150475 10.2899 -0.150475 9.69195 0.451424 Z M 0.554793 11.9381 C 0.0666319 12.6393 0 15.5165 0 35.9226 C 0 58.8374 0.00855238 59.1208 0.738656 60.0548 L 1.47695 61 L 15.5 61 L 29.523 61 L 30.2613 60.0548 C 30.9914 59.1208 31 58.8374 31 35.9226 C 31 15.5165 30.9334 12.6393 30.4452 11.9381 L 29.8908 11.1407 L 15.5 11.1407 L 1.10923 11.1407 L 0.554793 11.9381 Z M 24.9283 37.8466 C 25.1645 38.1332 25.3021 38.6576 25.2344 39.0124 C 25.1193 39.6143 24.4679 39.6573 15.5 39.6573 C 6.53209 39.6573 5.88074 39.6143 5.76564 39.0124 C 5.46028 37.4151 5.97623 37.3258 15.5 37.3258 C 22.9322 37.3258 24.5737 37.4165 24.9283 37.8466 Z M 24.7351 44.9718 C 25.0879 45.2315 25.3167 45.756 25.2436 46.1376 C 25.1164 46.803 24.718 46.8313 15.5 46.8313 C 6.28195 46.8313 5.88359 46.803 5.75638 46.1376 C 5.47346 44.6594 6.42199 44.4998 15.5 44.4998 C 22.0428 44.4998 24.2466 44.6124 24.7351 44.9718 Z M 25.2436 52.9056 C 25.5258 54.382 24.573 54.5434 15.5866 54.5434 C 10.4039 54.5434 6.81038 54.3981 6.39028 54.1721 C 5.71362 53.8073 5.46562 52.7477 5.94452 52.266 C 6.07814 52.1311 10.4456 52.0641 15.6493 52.1164 C 24.6806 52.2075 25.1171 52.2434 25.2436 52.9056 Z" fill="#FFFFFF" fill-rule="evenodd" clip-rule="evenodd"/></svg>