<svg version="1.1" width="44" height="45" viewBox="0 0 44 45" xmlns="http://www.w3.org/2000/svg" xmlns:xlink="http://www.w3.org/1999/xlink" fill="none" overflow="hidden"><path d=" M 1.91265 0.511364 C 1.36916 0.7925 0.716347 1.31136 0.462224 1.66432 C 0.00381589 2.30068 0 2.47386 0 22.5 C 0 42.5261 0.00381589 42.6993 0.462224 43.3357 C 0.716347 43.6886 1.36916 44.2073 1.91265 44.4886 L 2.90131 45 L 22 45 L 41.0987 45 L 42.0873 44.4886 C 42.6308 44.2075 43.2836 43.6886 43.5378 43.3357 C 43.9962 42.6993 44 42.5261 44 22.5 C 44 2.47386 43.9962 2.30068 43.5378 1.66432 C 43.2836 1.31136 42.6308 0.7925 42.0873 0.511364 L 41.0987 0 L 22 0 L 2.90131 0 L 1.91265 0.511364 Z M 10.3939 6.63636 C 10.5438 6.78818 10.6635 7.51841 10.6639 8.28409 C 10.6644 9.64023 10.6761 9.66523 11.5058 10.1136 C 12.6491 10.7314 13.4234 12.2516 13.2842 13.6055 C 13.1645 14.7684 12.63 15.5834 11.4876 16.345 L 10.6633 16.8943 L 10.6633 27.5102 C 10.6633 38.9661 10.6841 38.7673 9.49704 38.597 L 8.97959 38.5227 L 8.92122 27.68 L 8.86308 16.8375 L 8.07512 16.4589 C 6.81663 15.8543 6.28571 14.9039 6.28571 13.2552 C 6.28571 11.6266 6.72482 10.8416 8.04302 10.1136 C 8.86196 9.66136 8.86622 9.65136 8.86667 8.16295 C 8.86712 7.34 8.93469 6.59841 9.01708 6.51523 C 9.26088 6.26818 10.1034 6.34227 10.3939 6.63636 Z M 22.7332 12.6677 L 22.7929 18.8582 L 23.6646 19.3084 C 24.8459 19.9184 25.5314 21.0907 25.5314 22.5 C 25.5314 23.9093 24.8459 25.0816 23.6646 25.6916 L 22.7929 26.1418 L 22.7332 32.3323 L 22.6735 38.5227 L 22 38.5227 L 21.3265 38.5227 L 21.2668 32.3323 L 21.2071 26.1418 L 20.3354 25.6916 C 17.8303 24.3977 17.8326 20.6011 20.339 19.3066 L 21.2143 18.8543 L 21.2143 12.7605 C 21.2143 9.40886 21.2863 6.59386 21.3743 6.50477 C 21.4621 6.41568 21.7906 6.37296 22.1039 6.41 L 22.6735 6.47727 L 22.7332 12.6677 Z M 35.079 16.5909 L 35.1376 26.7045 L 35.9588 27.1591 C 37.1441 27.8152 37.6618 28.645 37.7605 30.0475 C 37.8669 31.5568 37.2047 32.825 35.9745 33.4682 L 35.1327 33.9082 L 35.1327 35.9127 C 35.1327 38.2659 35.0287 38.6364 34.3678 38.6364 C 33.5035 38.6364 33.3367 38.2123 33.3367 36.0155 L 33.3367 33.9398 L 32.5124 33.3905 C 31.37 32.6289 30.8355 31.8139 30.7158 30.6509 C 30.5766 29.297 31.3509 27.7768 32.4942 27.1591 L 33.3356 26.7045 L 33.3361 16.8068 C 33.3367 6.21409 33.33 6.27727 34.4576 6.41068 L 35.0204 6.47727 L 35.079 16.5909 Z" fill="#FFFFFF" fill-rule="evenodd" clip-rule="evenodd"/></svg>