<svg version="1.1" width="182" height="237" viewBox="0 0 182 237" xmlns="http://www.w3.org/2000/svg" xmlns:xlink="http://www.w3.org/1999/xlink" fill="none" overflow="hidden"><path d=" M 109.7 1.41063 C 107.672 2.44913 104.573 5.12331 98.0504 11.462 L 89.1644 20.0981 L 85.5333 20.1088 C 83.5363 20.1149 81.5168 20.3606 81.0454 20.6555 C 80.312 21.1136 79.8308 20.8417 77.7304 18.7834 C 76.3788 17.459 74.9327 16.3756 74.5165 16.3756 C 73.6288 16.3756 57.5956 32.2695 57.5956 33.1498 C 57.5956 33.4788 58.6797 34.8945 60.0042 36.2962 C 62.2748 38.6985 62.3688 38.8936 61.6411 39.6981 C 60.6501 40.7942 60.5855 47.7932 61.534 51.358 C 62.9992 56.8659 64.1039 58.1488 89.6302 83.9723 L 113.948 108.574 L 143.53 78.9745 L 173.112 49.3751 L 169.389 45.6493 L 165.666 41.9239 L 162.191 45.2959 C 158.479 48.8972 157.431 49.2885 154.942 48.001 C 153.525 47.2676 152.536 45.5117 152.536 43.7295 C 152.536 42.9826 153.611 41.345 155.604 39.0584 L 158.673 35.5371 L 157.202 33.6786 C 156.393 32.656 155.585 31.8197 155.406 31.8197 C 155.227 31.8197 153.734 33.1802 152.086 34.8435 C 150.337 36.6093 148.531 37.9899 147.743 38.1631 C 145.918 38.5646 143.752 37.5869 142.926 35.9892 C 141.523 33.2738 142.124 31.8899 146.632 27.456 L 148.928 25.1984 L 146.422 22.659 C 145.043 21.2625 143.6 20.1196 143.213 20.1196 C 142.827 20.1196 138.506 16.1317 133.61 11.2579 C 123.197 0.892548 121.814 0.0075509 116.014 6.28154e-05 C 112.979 -0.00414923 112.063 0.200837 109.7 1.41063 Z M 119.343 8.73397 C 120.896 9.78511 130.555 19.2702 130.555 19.7447 C 130.555 19.9506 124.03 20.1196 116.056 20.1196 C 108.082 20.1196 101.558 19.946 101.558 19.7344 C 101.558 19.1003 111.5 9.56749 113.016 8.74754 C 114.85 7.75584 117.888 7.74976 119.343 8.73397 Z M 123.773 50.7655 C 134.72 53.5436 137.481 54.9696 139.671 58.9771 C 140.853 61.1402 141.069 62.0468 141.06 64.8141 C 141.048 68.6658 139.995 71.0727 137.281 73.4581 C 134.907 75.5436 132.725 76.3738 129.619 76.3738 C 121.707 76.3738 118.249 71.1991 114.432 53.6517 L 113.327 48.5734 L 115.51 48.8977 C 116.711 49.0765 120.429 49.917 123.773 50.7655 Z M 148.599 84.1979 L 119.176 113.643 L 121.418 115.067 C 126.664 118.396 135.287 117.336 141.65 112.58 C 143.136 111.469 151.95 102.9 161.237 93.5374 C 176.073 78.579 178.3 76.1454 179.59 73.4722 C 181.348 69.8334 182 66.6533 182 61.7238 C 182 58.153 181.957 58.0168 180.348 56.4054 C 179.438 55.4961 178.543 54.752 178.359 54.752 C 178.173 54.752 164.782 68.0026 148.599 84.1979 Z M 53.9631 67.7391 C 48.6375 74.5486 41.8594 86.2473 40.5124 90.955 C 38.5725 97.7354 42.2925 105.326 49.1048 108.488 C 52.8692 110.236 58.1115 110.236 61.874 108.49 C 69.7966 104.813 73.1162 95.9125 69.5235 87.9803 C 67.0531 82.5257 63.9706 77.4877 56.8941 67.338 C 56.3796 66.6 55.8184 65.9934 55.6472 65.9902 C 55.476 65.9869 54.7179 66.7741 53.9631 67.7391 Z" fill="#3E80B7" fill-rule="evenodd" clip-rule="evenodd"/><path d=" M 13.0915 135.475 C 11.409 135.966 9.21846 138.348 9.21846 139.685 C 9.21846 140.503 8.85639 140.587 5.30077 140.587 C 0.266662 140.587 -0.311997 141.054 0.112818 144.777 C 0.767238 150.517 5.43324 157.373 11.8073 161.961 C 14.0806 163.597 14.7494 164.362 14.9549 165.559 C 15.0985 166.394 16.9172 180.581 18.9971 197.085 C 21.8802 219.962 23.005 227.625 23.7305 229.333 C 24.972 232.255 28.4686 235.43 31.3874 236.285 C 34.6423 237.238 75.3577 237.238 78.6126 236.285 C 81.5314 235.43 85.028 232.255 86.2695 229.333 C 86.995 227.625 88.1198 219.962 91.0029 197.085 C 93.0828 180.581 94.9015 166.394 95.0451 165.559 C 95.2506 164.362 95.9194 163.597 98.1927 161.961 C 104.567 157.373 109.233 150.517 109.887 144.777 C 110.312 141.054 109.733 140.587 104.699 140.587 C 101.144 140.587 100.782 140.503 100.782 139.685 C 100.782 138.267 98.565 135.972 96.6849 135.446 C 94.4976 134.833 15.1952 134.861 13.0915 135.475 Z M 96.1643 139.197 C 96.8936 139.591 97.0632 140.193 97.0632 142.385 C 97.0632 143.872 96.8122 145.341 96.5055 145.651 C 95.6972 146.466 14.3028 146.466 13.4945 145.651 C 13.1877 145.341 12.9368 143.875 12.9368 142.392 C 12.9368 140.319 13.1245 139.585 13.7501 139.218 C 14.8861 138.551 94.9294 138.53 96.1643 139.197 Z M 9.38346 145.757 C 9.65722 147.136 11.264 149.167 12.3804 149.543 C 12.854 149.703 14.4757 158.838 14.1034 159.247 C 13.871 159.502 9.59541 155.573 7.92636 153.571 C 6.2666 151.58 4.45021 147.983 3.91571 145.627 L 3.62336 144.338 L 6.36281 144.338 C 9.03998 144.338 9.10877 144.37 9.38346 145.757 Z M 106.084 145.627 C 105.54 148.023 103.722 151.594 101.965 153.715 C 100.3 155.726 96.1337 159.51 95.8859 159.237 C 95.5211 158.833 97.1543 149.7 97.6196 149.543 C 98.736 149.167 100.343 147.136 100.617 145.757 C 100.891 144.37 100.96 144.338 103.637 144.338 L 106.377 144.338 L 106.084 145.627 Z M 93.0823 151.723 C 92.9317 152.69 92.5632 155.38 92.2634 157.701 L 91.7182 161.92 L 88.6971 163.424 C 84.6102 165.459 78.0962 167.544 71.8183 168.827 C 67.2388 169.763 65.2355 169.89 55 169.89 C 44.7645 169.89 42.7612 169.763 38.1817 168.827 C 31.9038 167.544 25.3898 165.459 21.3029 163.424 L 18.2818 161.92 L 17.7366 157.701 C 17.4368 155.38 17.0683 152.69 16.9177 151.723 L 16.6439 149.964 L 55 149.964 L 93.3561 149.964 L 93.0823 151.723 Z M 30.5987 170.75 C 38.758 173.121 43.0155 173.622 55 173.622 C 63.8342 173.622 67.1216 173.443 70.8028 172.76 C 76.621 171.681 82.2333 170.06 87.1865 168.029 C 90.1137 166.829 91.021 166.616 91.021 167.132 C 91.021 167.504 89.7661 177.677 88.2323 189.741 C 86.6985 201.804 85.4436 211.925 85.4436 212.233 C 85.4436 212.66 78.2682 212.792 55 212.792 C 31.7318 212.792 24.5564 212.66 24.5564 212.233 C 24.5564 211.925 23.3015 201.804 21.7677 189.741 C 20.2339 177.677 18.979 167.504 18.979 167.132 C 18.979 166.616 19.8863 166.829 22.8135 168.029 C 24.9222 168.894 28.4258 170.118 30.5987 170.75 Z" fill="#3E80B7" fill-rule="evenodd" clip-rule="evenodd"/></svg>