<svg version="1.1" width="253" height="171" viewBox="0 0 253 171" xmlns="http://www.w3.org/2000/svg" xmlns:xlink="http://www.w3.org/1999/xlink" fill="none" overflow="hidden"><path d=" M 199.932 37.3308 C 197.753 36.6613 193.667 36.4187 184.572 36.4173 L 172.181 36.4157 L 169.57 33.8924 C 168.133 32.5047 166.514 31.2733 165.971 31.1561 C 165.125 30.9734 164.97 30.443 164.899 27.5031 C 164.853 25.6113 164.571 23.8265 164.272 23.5363 C 163.636 22.9176 141.061 23.1381 140.447 23.7693 C 140.218 24.0053 140.009 25.776 139.981 27.7043 C 139.935 31.0095 139.866 31.215 138.784 31.2846 C 137.309 31.3797 132.384 36.3532 130.579 39.5704 C 127.791 44.5411 127.689 46.2309 127.992 82.5401 L 128.279 117.13 L 170.123 116.527 L 211.966 115.923 L 211.894 110.657 L 211.821 105.391 L 206.979 105.386 C 201.807 105.381 200.783 104.931 199.896 102.273 C 199.391 100.759 199.905 98.8107 201.148 97.5328 C 201.668 96.9972 203.581 96.5728 206.604 96.3223 L 211.259 95.9366 L 211.499 93.5785 C 211.632 92.2813 211.635 91.1183 211.507 90.9938 C 211.379 90.8692 209.36 90.8035 207.019 90.848 C 204.534 90.8949 202.277 90.6258 201.591 90.2007 C 200.002 89.2162 199.131 87.0055 199.653 85.2845 C 200.539 82.3595 201.935 81.7861 208.258 81.7492 L 211.477 81.7304 L 211.451 78.1629 C 211.436 76.2008 211.197 74.375 210.92 74.1057 C 210.643 73.8364 210.325 67.9648 210.211 61.0576 C 209.97 46.3673 209.596 44.7688 205.442 40.7204 C 203.269 38.602 202.469 38.1103 199.932 37.3308 Z M 201.741 49.303 C 202.122 51.1393 202.436 64.6729 202.105 65.0131 C 201.961 65.1608 197.166 60.7343 191.448 55.176 C 185.73 49.6177 181.173 44.9456 181.321 44.7939 C 181.763 44.3392 195.536 44.4337 197.195 44.9029 C 199.201 45.4701 201.384 47.5834 201.741 49.303 Z M 175.62 82.5289 C 181.532 92.1512 182.518 95.0984 181.295 99.4985 C 180.635 101.873 180.158 102.674 178.222 104.652 C 175.529 107.405 173.096 108.397 169.487 108.216 C 166.332 108.057 164.188 107.131 161.961 104.966 C 156.288 99.4509 157.415 93.3297 166.91 78.087 L 169.657 73.6756 L 170.997 75.43 C 171.733 76.395 173.813 79.5897 175.62 82.5289 Z M 170.116 123.806 L 128.495 124.41 L 129.11 126.993 C 130.552 133.037 137.473 138.287 145.351 139.313 C 147.19 139.552 159.483 139.551 172.668 139.311 C 193.733 138.928 197.026 138.734 199.815 137.717 C 203.611 136.333 206.295 134.508 209.731 130.973 C 212.221 128.413 212.285 128.285 212.254 126.008 C 212.236 124.722 212.113 123.565 211.98 123.436 C 211.847 123.307 193.009 123.473 170.116 123.806 Z" fill="#3E80B7" fill-rule="evenodd" clip-rule="evenodd"/><path d=" M 13.0915 37.4749 C 11.409 37.9663 9.21846 40.3477 9.21846 41.6853 C 9.21846 42.5035 8.85639 42.587 5.30077 42.587 C 0.266662 42.587 -0.311997 43.0544 0.112818 46.7772 C 0.767238 52.5171 5.43324 59.3728 11.8073 63.9611 C 14.0806 65.5975 14.7494 66.3622 14.9549 67.5587 C 15.0985 68.3943 16.9172 82.5812 18.9971 99.0853 C 21.8802 121.962 23.005 129.625 23.7305 131.333 C 24.972 134.255 28.4686 137.43 31.3874 138.285 C 34.6423 139.238 75.3577 139.238 78.6126 138.285 C 81.5314 137.43 85.028 134.255 86.2695 131.333 C 86.995 129.625 88.1198 121.962 91.0029 99.0853 C 93.0828 82.5812 94.9015 68.3943 95.0451 67.5587 C 95.2506 66.3622 95.9194 65.5975 98.1927 63.9611 C 104.567 59.3728 109.233 52.5171 109.887 46.7772 C 110.312 43.0544 109.733 42.587 104.699 42.587 C 101.144 42.587 100.782 42.5035 100.782 41.6853 C 100.782 40.2666 98.565 37.9724 96.6849 37.4459 C 94.4976 36.8331 15.1952 36.8607 13.0915 37.4749 Z M 96.1643 41.1968 C 96.8936 41.5906 97.0632 42.1927 97.0632 44.3851 C 97.0632 45.8718 96.8122 47.3413 96.5055 47.6507 C 95.6972 48.4661 14.3028 48.4661 13.4945 47.6507 C 13.1877 47.3413 12.9368 45.8747 12.9368 44.3921 C 12.9368 42.3188 13.1245 41.5855 13.7501 41.2179 C 14.8861 40.5507 94.9294 40.5301 96.1643 41.1968 Z M 9.38346 47.7567 C 9.65722 49.1361 11.264 51.1667 12.3804 51.5432 C 12.854 51.7031 14.4757 60.8385 14.1034 61.2473 C 13.871 61.5024 9.59541 57.5733 7.92636 55.5713 C 6.2666 53.58 4.45021 49.9829 3.91571 47.6273 L 3.62336 46.3379 L 6.36281 46.3379 C 9.03998 46.3379 9.10877 46.3702 9.38346 47.7567 Z M 106.084 47.6273 C 105.54 50.0227 103.722 53.5936 101.965 55.7152 C 100.3 57.7257 96.1337 61.5104 95.8859 61.2366 C 95.5211 60.8333 97.1543 51.7003 97.6196 51.5432 C 98.736 51.1667 100.343 49.1361 100.617 47.7567 C 100.891 46.3702 100.96 46.3379 103.637 46.3379 L 106.377 46.3379 L 106.084 47.6273 Z M 93.0823 53.7225 C 92.9317 54.6898 92.5632 57.3797 92.2634 59.7006 L 91.7182 63.9203 L 88.6971 65.4245 C 84.6102 67.4589 78.0962 69.5439 71.8183 70.8272 C 67.2388 71.7631 65.2355 71.8897 55 71.8897 C 44.7645 71.8897 42.7612 71.7631 38.1817 70.8272 C 31.9038 69.5439 25.3898 67.4589 21.3029 65.4245 L 18.2818 63.9203 L 17.7366 59.7006 C 17.4368 57.3797 17.0683 54.6898 16.9177 53.7225 L 16.6439 51.9643 L 55 51.9643 L 93.3561 51.9643 L 93.0823 53.7225 Z M 30.5987 72.7496 C 38.758 75.1211 43.0155 75.6223 55 75.6223 C 63.8342 75.6223 67.1216 75.4432 70.8028 74.7601 C 76.621 73.6807 82.2333 72.0603 87.1865 70.0292 C 90.1137 68.8289 91.021 68.6165 91.021 69.1323 C 91.021 69.5041 89.7661 79.6775 88.2323 91.7409 C 86.6985 103.804 85.4436 113.925 85.4436 114.233 C 85.4436 114.66 78.2682 114.792 55 114.792 C 31.7318 114.792 24.5564 114.66 24.5564 114.233 C 24.5564 113.925 23.3015 103.804 21.7677 91.7409 C 20.2339 79.6775 18.979 69.5041 18.979 69.1323 C 18.979 68.6165 19.8863 68.8289 22.8135 70.0292 C 24.9222 70.8938 28.4258 72.118 30.5987 72.7496 Z" fill="#3E80B7" fill-rule="evenodd" clip-rule="evenodd"/></svg>