<svg version="1.1" width="55" height="55" viewBox="0 0 55 55" xmlns="http://www.w3.org/2000/svg" xmlns:xlink="http://www.w3.org/1999/xlink" fill="none" overflow="hidden"><path d=" M 4.58333 4.58333 L 4.58333 50.4167 L 13.75 50.4167 C 14.3578 50.4167 14.9407 50.6581 15.3705 51.0879 C 15.8002 51.5177 16.0417 52.1005 16.0417 52.7083 C 16.0417 53.3161 15.8002 53.899 15.3705 54.3288 C 14.9407 54.7586 14.3578 55 13.75 55 L 2.29167 55 C 1.68388 55 1.10098 54.7586 0.671214 54.3288 C 0.241443 53.899 0 53.3161 0 52.7083 L 0 2.29167 C 0 1.68388 0.241443 1.10098 0.671214 0.671214 C 1.10098 0.241443 1.68388 0 2.29167 0 L 13.75 0 C 14.3578 0 14.9407 0.241443 15.3705 0.671214 C 15.8002 1.10098 16.0417 1.68388 16.0417 2.29167 C 16.0417 2.89945 15.8002 3.48235 15.3705 3.91212 C 14.9407 4.34189 14.3578 4.58333 13.75 4.58333 L 4.58333 4.58333 Z M 52.7083 0 L 41.25 0 C 40.6422 0 40.0593 0.241443 39.6295 0.671214 C 39.1998 1.10098 38.9583 1.68388 38.9583 2.29167 C 38.9583 2.89945 39.1998 3.48235 39.6295 3.91212 C 40.0593 4.34189 40.6422 4.58333 41.25 4.58333 L 50.4167 4.58333 L 50.4167 50.4167 L 41.25 50.4167 C 40.6422 50.4167 40.0593 50.6581 39.6295 51.0879 C 39.1998 51.5177 38.9583 52.1005 38.9583 52.7083 C 38.9583 53.3161 39.1998 53.899 39.6295 54.3288 C 40.0593 54.7586 40.6422 55 41.25 55 L 52.7083 55 C 53.3161 55 53.899 54.7586 54.3288 54.3288 C 54.7586 53.899 55 53.3161 55 52.7083 L 55 2.29167 C 55 1.68388 54.7586 1.10098 54.3288 0.671214 C 53.899 0.241443 53.3161 0 52.7083 0 Z" fill="#FFFFFF"/></svg>