<svg version="1.1" width="55" height="55" viewBox="0 0 55 55" xmlns="http://www.w3.org/2000/svg" xmlns:xlink="http://www.w3.org/1999/xlink" fill="none" overflow="hidden"><path d=" M 27.5 27.5 C 23.7188 27.5 20.4818 26.1536 17.7891 23.4609 C 15.0964 20.7682 13.75 17.5312 13.75 13.75 C 13.75 9.96875 15.0964 6.73177 17.7891 4.03906 C 20.4818 1.34635 23.7188 0 27.5 0 C 31.2812 0 34.5182 1.34635 37.2109 4.03906 C 39.9036 6.73177 41.25 9.96875 41.25 13.75 C 41.25 17.5312 39.9036 20.7682 37.2109 23.4609 C 34.5182 26.1536 31.2812 27.5 27.5 27.5 Z M 6.875 55 C 4.98438 55 3.36646 54.3274 2.02125 52.9822 C 0.673749 51.6347 0 50.0156 0 48.125 L 0 45.375 C 0 43.4271 0.501876 41.6361 1.50563 40.0022 C 2.50708 38.3705 3.83854 37.125 5.5 36.2656 C 9.05208 34.4896 12.6615 33.157 16.3281 32.2678 C 19.9948 31.3809 23.7188 30.9375 27.5 30.9375 C 31.2812 30.9375 35.0052 31.3809 38.6719 32.2678 C 42.3385 33.157 45.9479 34.4896 49.5 36.2656 C 51.1615 37.125 52.4929 38.3705 53.4944 40.0022 C 54.4981 41.6361 55 43.4271 55 45.375 L 55 48.125 C 55 50.0156 54.3274 51.6347 52.9822 52.9822 C 51.6347 54.3274 50.0156 55 48.125 55 L 6.875 55 Z" fill="#FFFFFF"/></svg>