<svg version="1.1" width="55" height="55" viewBox="0 0 55 55" xmlns="http://www.w3.org/2000/svg" xmlns:xlink="http://www.w3.org/1999/xlink" fill="none" overflow="hidden"><path d=" M 6.105 0 C 4.48585 0 2.93302 0.643204 1.78811 1.78811 C 0.643204 2.93302 0 4.48585 0 6.105 L 0 48.895 C 0 52.25 2.75 55 6.105 55 L 48.895 55 C 50.5141 55 52.067 54.3568 53.2119 53.2119 C 54.3568 52.067 55 50.5141 55 48.895 L 55 6.105 C 55 2.75 52.25 0 48.895 0 L 6.105 0 Z M 24.75 5.6925 L 24.75 11 L 30.25 11 L 30.25 5.6925 C 35.5631 6.36188 40.4495 8.94615 43.9934 12.9608 C 47.5373 16.9755 49.4951 22.1449 49.5 27.5 C 49.4951 32.8551 47.5373 38.0245 43.9934 42.0392 C 40.4495 46.0539 35.5631 48.6381 30.25 49.3075 L 30.25 44 L 24.75 44 L 24.75 49.3075 C 19.4369 48.6381 14.5505 46.0539 11.0066 42.0392 C 7.46273 38.0245 5.50486 32.8551 5.5 27.5 C 5.50486 22.1449 7.46273 16.9755 11.0066 12.9608 C 14.5505 8.94615 19.4369 6.36188 24.75 5.6925 Z M 15.125 23.375 C 14.031 23.375 12.9818 23.8096 12.2082 24.5832 C 11.4346 25.3568 11 26.406 11 27.5 C 11 29.7825 12.815 31.625 15.125 31.625 C 16.219 31.625 17.2682 31.1904 18.0418 30.4168 C 18.8154 29.6432 19.25 28.594 19.25 27.5 C 19.25 26.406 18.8154 25.3568 18.0418 24.5832 C 17.2682 23.8096 16.219 23.375 15.125 23.375 Z M 39.875 23.375 C 38.781 23.375 37.7318 23.8096 36.9582 24.5832 C 36.1846 25.3568 35.75 26.406 35.75 27.5 C 35.75 28.594 36.1846 29.6432 36.9582 30.4168 C 37.7318 31.1904 38.781 31.625 39.875 31.625 C 40.969 31.625 42.0182 31.1904 42.7918 30.4168 C 43.5654 29.6432 44 28.594 44 27.5 C 44 26.406 43.5654 25.3568 42.7918 24.5832 C 42.0182 23.8096 40.969 23.375 39.875 23.375 Z" fill="#FFFFFF"/></svg>