<svg version="1.1" width="79" height="55" viewBox="0 0 79 55" xmlns="http://www.w3.org/2000/svg" xmlns:xlink="http://www.w3.org/1999/xlink" fill="none" overflow="hidden"><path d=" M 16.2246 35.3203 C 15.1834 34.2891 14.6918 33.0573 14.7496 31.625 C 14.8075 30.1927 15.3859 29.0755 16.4849 28.2734 C 19.6661 25.8672 23.2095 23.9903 27.115 22.6428 C 31.0181 21.2976 35.1388 20.625 39.4769 20.625 C 43.8729 20.625 48.0236 21.3125 51.929 22.6875 C 55.8322 24.0625 59.3744 25.9818 62.5557 28.4453 C 63.6547 29.2474 64.2192 30.3508 64.2493 31.7556 C 64.2771 33.1581 63.7704 34.375 62.7292 35.4062 C 61.7459 36.3802 60.5463 36.8821 59.1303 36.9119 C 57.7121 36.9394 56.3956 36.5521 55.1809 35.75 C 52.9251 34.2031 50.4818 33.0149 47.8512 32.1853 C 45.2183 31.3534 42.4268 30.9375 39.4769 30.9375 C 36.527 30.9375 33.7367 31.3672 31.1061 32.2266 C 28.4731 33.0859 26.0576 34.2604 23.8597 35.75 C 22.5872 36.6094 21.2429 36.9967 19.8269 36.9119 C 18.4087 36.8248 17.2079 36.2943 16.2246 35.3203 Z M 1.47496 20.7969 C 0.491654 19.8229 0 18.6335 0 17.2288 C 0 15.8263 0.520575 14.6667 1.56172 13.75 C 6.70963 9.45312 12.4938 6.08667 18.9142 3.65062 C 25.3346 1.21687 32.1889 0 39.4769 0 C 46.7649 0 53.6192 1.21687 60.0396 3.65062 C 66.46 6.08667 72.2442 9.45312 77.3921 13.75 C 78.4332 14.6667 78.9688 15.8125 78.9989 17.1875 C 79.0267 18.5625 78.52 19.7656 77.4788 20.7969 C 76.4955 21.7708 75.2959 22.2865 73.8799 22.3438 C 72.4617 22.401 71.1741 21.9714 70.0173 21.0547 C 65.7948 17.6745 61.0958 15.0391 55.9201 13.1484 C 50.7421 11.2578 45.2611 10.3125 39.4769 10.3125 C 33.6927 10.3125 28.2128 11.2578 23.0372 13.1484 C 17.8592 15.0391 13.159 17.6745 8.93653 21.0547 C 7.7797 21.9714 6.4933 22.401 5.07734 22.3438 C 3.65906 22.2865 2.45827 21.7708 1.47496 20.7969 Z M 39.4769 55 C 37.5103 55 35.8618 54.3411 34.5314 53.0234 C 33.2011 51.7057 32.5359 50.0729 32.5359 48.125 C 32.5359 46.1771 33.2011 44.5443 34.5314 43.2266 C 35.8618 41.9089 37.5103 41.25 39.4769 41.25 C 41.4435 41.25 43.092 41.9089 44.4224 43.2266 C 45.7527 44.5443 46.4179 46.1771 46.4179 48.125 C 46.4179 50.0729 45.7527 51.7057 44.4224 53.0234 C 43.092 54.3411 41.4435 55 39.4769 55 Z" fill="#FFFFFF"/></svg>