<svg version="1.1" width="44" height="55" viewBox="0 0 44 55" xmlns="http://www.w3.org/2000/svg" xmlns:xlink="http://www.w3.org/1999/xlink" fill="none" overflow="hidden"><path d=" M 22 55 C 16.1792 55 11.0578 52.9336 6.63575 48.8008 C 2.21192 44.6661 0 39.0722 0 32.0191 C 0 27.5817 1.65 22.7707 4.95 17.586 C 8.25 12.4013 13.2458 6.79618 19.9375 0.770701 C 20.2125 0.537155 20.5333 0.350319 20.9 0.210191 C 21.2667 0.0700638 21.6333 0 22 0 C 22.3667 0 22.7333 0.0700638 23.1 0.210191 C 23.4667 0.350319 23.7875 0.537155 24.0625 0.770701 C 30.7542 6.79618 35.75 12.4013 39.05 17.586 C 42.35 22.7707 44 27.5817 44 32.0191 C 44 39.0722 41.7881 44.6661 37.3643 48.8008 C 32.9422 52.9336 27.8208 55 22 55 Z M 22.7562 46.5924 C 23.3062 46.5456 23.7765 46.3242 24.167 45.9282 C 24.5557 45.5302 24.75 45.051 24.75 44.4904 C 24.75 43.8365 24.5437 43.3115 24.1312 42.9154 C 23.7187 42.5174 23.1917 42.3418 22.55 42.3885 C 20.6708 42.5287 18.6771 42.0037 16.5687 40.8135 C 14.4604 39.6215 13.1312 37.4607 12.5812 34.3312 C 12.4896 33.8174 12.2485 33.397 11.858 33.0701 C 11.4693 32.7431 11.0229 32.5796 10.5187 32.5796 C 9.87708 32.5796 9.35 32.8244 8.9375 33.3139 C 8.525 33.8053 8.3875 34.3779 8.525 35.0318 C 9.30417 39.2824 11.1375 42.3185 14.025 44.1401 C 16.9125 45.9618 19.8229 46.7792 22.7562 46.5924 Z" fill="#FFFFFF"/></svg>