<svg version="1.1" width="34" height="34" viewBox="0 0 34 34" xmlns="http://www.w3.org/2000/svg" xmlns:xlink="http://www.w3.org/1999/xlink" fill="none" overflow="hidden"><path d=" M 9.55173 0.624603 C 8.83105 1.34102 8.56708 1.38053 7.6489 0.909578 C 7.04816 0.601337 6.94885 0.590874 6.57543 0.797306 C 5.82461 1.21204 5.81652 1.64677 6.53006 3.20328 L 7.17348 4.60645 L 8.41146 4.74995 C 10.0467 4.93952 14.6812 4.95513 16.4499 4.77712 L 17.8567 4.63565 L 18.48 3.30134 C 19.1829 1.79651 19.2002 1.34196 18.5723 0.882408 L 18.1354 0.562923 L 17.4179 0.905986 C 17.0233 1.09477 16.5853 1.24921 16.4447 1.24921 C 16.3042 1.24921 15.8793 0.968135 15.5007 0.624603 C 15.122 0.281071 14.6747 0 14.5065 0 C 14.3384 0 13.9016 0.245937 13.5361 0.546528 C 13.1707 0.847118 12.7066 1.09306 12.505 1.09306 C 12.3034 1.09306 11.8394 0.847118 11.4739 0.546528 C 11.1084 0.245937 10.6677 0 10.4946 0 C 10.3216 0 9.89723 0.281071 9.55173 0.624603 Z M 22.8394 4.0379 C 21.2788 5.52133 20.5173 5.99244 19.2456 6.26086 C 18.6004 6.39718 18.3237 6.38532 17.8523 6.20168 C 17.3472 6.00478 17.0848 6.00165 15.995 6.17904 C 14.3747 6.44278 10.836 6.44434 9.09438 6.18201 C 8.34943 6.06989 7.59338 6.03429 7.40508 6.10268 C 6.93965 6.27148 6.55623 6.84893 6.55623 7.38093 C 6.55623 8.59048 8.06659 8.98335 12.6637 8.96977 C 15.0159 8.9629 15.9215 8.8995 16.7882 8.68167 C 18.1719 8.33377 18.3659 8.33236 20.9778 8.64966 C 23.5607 8.96352 24.2689 9.24209 24.9456 10.2105 C 25.4372 10.9138 25.7659 11.0648 26.2071 10.7897 C 26.8635 10.3804 25.899 8.66949 24.665 8.05394 C 23.8828 7.66388 22.4508 7.34127 21.4783 7.33612 L 20.9127 7.33315 L 21.6565 6.87329 C 22.5821 6.30099 25.2751 3.70015 25.2751 3.37832 C 25.2751 3.14534 24.7035 2.65456 24.4323 2.65456 C 24.3566 2.65456 23.6397 3.27714 22.8394 4.0379 Z M 5.58808 10.1075 C 3.11799 12.6905 1.35508 15.6115 0.426592 18.66 C 0.0465038 19.908 -0.00124502 20.319 2.40598e-05 22.3296 C 0.00129314 24.1536 0.0679193 24.8366 0.343309 25.8429 C 1.4382 29.8463 4.03013 32.5214 7.74599 33.4829 C 9.48859 33.9339 12.3992 34.1222 14.4605 33.9177 C 17.5164 33.6141 19.5221 32.9183 21.2778 31.5521 L 22.1024 30.9105 L 22.1024 26.0057 C 22.1024 22.927 22.1651 20.937 22.2707 20.6611 C 22.4963 20.0722 23.3161 19.2475 24.0419 18.8793 L 24.6328 18.5794 L 24.2205 17.4486 C 23.4652 15.3776 22.3288 13.466 20.6704 11.4771 C 19.1854 9.69602 19.046 9.59765 18.3139 9.81361 C 15.217 10.7268 8.73841 10.6226 6.39347 9.62185 C 6.23357 9.55377 5.95976 9.71882 5.58808 10.1075 Z M 13.2189 14.6811 C 13.2919 15.2975 13.3486 15.3684 13.9258 15.5642 C 15.1257 15.9714 15.6972 16.9464 14.9629 17.3332 C 14.7085 17.4673 14.5068 17.4214 13.9575 17.1046 C 11.8789 15.9054 9.3693 17.6705 10.4824 19.5487 C 10.8271 20.1303 11.7501 20.6119 12.5199 20.6119 C 15.0222 20.6119 16.8746 23.0135 15.9866 25.1062 C 15.5714 26.0844 14.244 27.1702 13.4632 27.1702 C 13.2792 27.1702 13.2189 27.3446 13.2189 27.8762 C 13.2189 28.4863 13.1624 28.6076 12.8037 28.7684 C 12.4371 28.9329 12.3534 28.9121 12.0899 28.5917 C 11.9255 28.3921 11.7912 27.9905 11.7912 27.6994 C 11.7912 27.2934 11.7245 27.1702 11.505 27.1702 C 11.1612 27.1702 9.92848 26.4141 9.5054 25.944 C 9.25349 25.6638 9.23287 25.542 9.3831 25.2177 C 9.62819 24.6882 10.0194 24.7263 10.998 25.3745 C 11.5932 25.7688 11.9969 25.921 12.4468 25.921 C 13.8531 25.921 14.8052 25.1183 14.8052 23.9324 C 14.8052 23.3509 14.7178 23.1492 14.2784 22.7167 C 13.9318 22.3755 13.5382 22.1656 13.1283 22.1031 C 11.4893 21.8538 10.8135 21.6526 10.2389 21.2427 C 8.05977 19.689 8.46444 16.7028 10.9993 15.6294 C 11.7566 15.3087 11.7912 15.2673 11.7912 14.6827 C 11.7912 14.2294 11.8816 14.0089 12.1408 13.8303 C 12.6676 13.4671 13.1172 13.8218 13.2189 14.6811 Z M 27.258 19.3621 C 25.3609 19.6222 23.5301 20.5811 23.5301 21.3146 C 23.5301 22.0978 25.3574 23.0018 27.5195 23.2882 C 30.0692 23.6259 33.1686 22.8366 33.8272 21.6815 C 34.0359 21.3155 34.0319 21.2296 33.7895 20.8653 C 33.4775 20.3967 32.34 19.7969 31.3032 19.5544 C 30.2373 19.3052 28.3337 19.2147 27.258 19.3621 Z M 23.5301 24.224 C 23.5301 24.7611 23.6247 24.9569 24.0949 25.3934 C 25.8676 27.0391 31.5577 27.0626 33.4443 25.4321 C 33.9212 25.0199 34 24.8545 34 24.2652 C 34 23.8876 33.9614 23.5788 33.9143 23.5788 C 33.8672 23.5788 33.5476 23.7199 33.2038 23.8925 C 31.0572 24.9705 26.4729 24.9705 24.3263 23.8925 C 23.9825 23.7199 23.6629 23.5788 23.6158 23.5788 C 23.5687 23.5788 23.5301 23.869 23.5301 24.224 Z M 23.5301 27.4615 C 23.5301 28.5773 24.5229 29.3387 26.5213 29.7556 C 29.1869 30.3117 32.5423 29.7445 33.6767 28.5461 C 33.897 28.3133 34 27.9927 34 27.54 L 34 26.8754 L 33.3084 27.1766 C 30.6858 28.3186 26.6971 28.317 24.2917 27.173 C 23.9273 26.9997 23.6069 26.8579 23.5796 26.8579 C 23.5523 26.8579 23.5301 27.1295 23.5301 27.4615 Z M 23.5301 30.8555 C 23.5301 31.394 23.6215 31.6466 23.924 31.9444 C 25.4877 33.4836 30.6668 33.7376 33.0035 32.3896 C 33.8068 31.9261 34 31.6143 34 30.7806 L 34 30.1544 L 33.1424 30.5407 C 32.0751 31.0218 30.188 31.3863 28.7651 31.3863 C 27.3421 31.3863 25.455 31.0218 24.3877 30.5407 L 23.5301 30.1544 L 23.5301 30.8555 Z" fill="#FFFFFF" fill-rule="evenodd" clip-rule="evenodd"/></svg>