<svg version="1.1" width="34" height="40" viewBox="0 0 34 40" xmlns="http://www.w3.org/2000/svg" xmlns:xlink="http://www.w3.org/1999/xlink" fill="none" overflow="hidden"><path d=" M 23.2183 0.398613 C 22.1515 0.928314 21.5291 1.8879 21.5166 3.02184 C 21.5119 3.442 21.553 3.93152 21.6078 4.10976 C 21.6823 4.35217 21.4836 4.67608 20.8189 5.39537 L 19.9303 6.35674 L 18.836 5.8447 C 17.3162 5.13335 16.4959 4.9475 14.8963 4.95187 C 12.6403 4.95803 10.6595 5.73808 9.0295 7.26204 C 6.38633 9.73344 5.62587 13.0837 6.83949 16.9107 C 6.92355 17.1757 6.76534 17.3444 5.97171 17.8358 C 5.00898 18.432 4.99662 18.4345 4.46298 18.1693 C 2.20582 17.0472 -0.56564 19.3893 0.100843 21.8556 C 0.97366 25.0859 5.91952 24.7108 6.23967 21.39 C 6.3117 20.643 6.35267 20.5879 7.22923 20.057 C 7.73214 19.7526 8.19717 19.4798 8.26253 19.4512 C 8.32789 19.4225 8.68057 19.6777 9.04641 20.0183 C 9.67029 20.5992 11.0888 21.5246 11.3598 21.5275 C 11.4268 21.5282 11.4818 20.9119 11.4818 20.158 L 11.4818 18.7871 L 10.6974 18.056 C 7.18403 14.7809 8.77243 8.91418 13.5142 7.65174 C 16.3327 6.90151 19.3388 8.36779 20.633 11.1241 C 21.08 12.076 21.1415 12.3761 21.1379 13.5872 C 21.1322 15.4735 20.6964 16.563 19.4279 17.863 C 18.4653 18.8495 18.425 19.09 19.2215 19.0958 C 19.4095 19.0971 19.9046 19.2792 20.322 19.5004 C 21.0571 19.8898 21.0902 19.8932 21.378 19.6064 C 21.7881 19.1977 22.5889 18.0155 22.9923 17.2233 L 23.3282 16.5637 L 25.4942 16.9853 L 27.6601 17.4067 L 27.9333 17.9828 C 28.5214 19.2225 30.0259 20.045 31.3098 19.8289 C 33.078 19.5312 34.3552 17.6414 33.9113 15.979 C 33.2822 13.6225 30.36 12.7856 28.6763 14.4797 L 28.229 14.9297 L 26.8065 14.651 C 26.0239 14.4978 25.0467 14.3018 24.6348 14.2152 L 23.8861 14.0582 L 23.6918 12.6748 C 23.4728 11.114 23.0653 9.96402 22.3653 8.93022 C 22.1027 8.54263 21.8879 8.18777 21.8879 8.14175 C 21.8879 8.09573 22.2673 7.62857 22.7307 7.10373 C 23.5562 6.16926 23.5877 6.15144 24.2552 6.24267 C 25.1215 6.36095 25.9852 6.07722 26.7227 5.43199 C 27.4502 4.79534 27.7414 4.11025 27.7414 3.03545 C 27.7414 1.83086 27.1848 0.944356 26.0859 0.398613 C 25.0156 -0.132871 24.2885 -0.132871 23.2183 0.398613 Z M 13.9128 9.42849 C 12.4647 9.82969 11.359 10.8134 10.8917 12.116 C 10.5616 13.0361 10.622 14.5288 11.0231 15.3714 L 11.3701 16.1006 L 11.5114 15.2121 C 11.772 13.5726 12.9172 12.5177 14.6275 12.3419 C 15.2997 12.2727 15.6681 12.3311 16.2893 12.6049 C 17.6747 13.2156 18.1017 13.7583 18.4024 15.2904 L 18.5931 16.2626 L 18.9604 15.4634 C 19.9339 13.3459 19.031 10.787 16.9619 9.79842 C 15.8985 9.29043 14.8638 9.16485 13.9128 9.42849 Z M 14.0319 13.3304 C 13.6906 13.4556 13.2598 13.6927 13.0746 13.8571 C 12.3323 14.5158 12.2948 14.859 12.2948 20.9703 L 12.2948 26.7416 L 11.479 26.1449 C 11.0062 25.799 10.4013 25.5132 10.0397 25.4649 C 9.18006 25.35 8.01311 25.8807 7.58434 26.5815 C 6.9307 27.65 7.25086 28.5935 8.6339 29.6753 C 9.74541 30.5448 10.7585 31.8412 11.9097 33.8675 C 12.4058 34.7406 13.0978 35.7402 13.4476 36.0886 C 14.0373 36.6764 14.0833 36.7887 14.0833 37.6406 C 14.0833 38.7743 14.3877 39.3914 15.1169 39.7362 C 15.5838 39.9569 16.2829 40.001 19.311 40 C 22.6291 39.999 22.9863 39.9718 23.4217 39.6858 C 24.1154 39.23 24.3147 38.7568 24.3212 37.5498 C 24.3254 36.7477 24.3957 36.4198 24.5989 36.2535 C 25.1153 35.8312 26.1215 34.1067 26.4706 33.0452 C 26.7836 32.0937 26.8283 31.5298 26.8902 27.7486 C 26.9502 24.082 26.9245 23.4496 26.6974 23.0118 C 26.3619 22.3656 25.6247 21.9879 24.6984 21.9879 C 24.0711 21.9879 23.8993 21.9101 23.4822 21.4366 C 22.8899 20.7642 21.9 20.4488 21.1255 20.6857 C 20.7064 20.8139 20.5561 20.7954 20.3898 20.5956 C 20.0542 20.1923 19.1975 19.9084 18.316 19.9084 L 17.4978 19.9084 L 17.4978 17.3888 C 17.4978 14.5721 17.3904 14.1736 16.478 13.6118 C 15.7468 13.1615 14.7911 13.0515 14.0319 13.3304 Z" fill="#FFFFFF" fill-rule="evenodd" clip-rule="evenodd"/></svg>