<svg version="1.1" width="25" height="32" viewBox="0 0 25 32" xmlns="http://www.w3.org/2000/svg" xmlns:xlink="http://www.w3.org/1999/xlink" fill="none" overflow="hidden"><path d=" M 0.253567 0.0663195 C 0.199871 0.119918 0.155976 0.599753 0.155976 1.13276 L 0.155976 2.10165 L 3.07434 2.10165 L 5.99271 2.10165 L 5.95095 1.07363 L 5.90918 0.0456174 L 3.13017 0.0071909 C 1.60181 -0.0137948 0.307264 0.0127209 0.253567 0.0663195 Z M 12.7468 0.12091 C 12.0393 0.332469 11.2631 0.971823 10.2366 2.18843 C 9.05597 3.58794 8.45835 4.07132 7.77138 4.18263 C 7.02516 4.30344 6.45666 4.01234 6.16928 3.36192 C 5.96941 2.91002 5.85364 2.81062 5.52677 2.81062 C 5.13072 2.81062 5.12788 2.81729 5.12788 3.72733 C 5.12788 4.48848 5.08129 4.66885 4.85315 4.79079 C 4.49773 4.98066 4.47884 4.97839 4.21461 4.71479 C 4.06191 4.56222 3.99145 4.22645 3.99145 3.65133 L 3.99145 2.81062 L 3.49426 2.81062 L 2.99707 2.81062 L 2.99707 7.2671 C 2.99707 11.1293 2.96723 11.7532 2.7739 11.9463 C 2.50115 12.2184 2.23111 12.2311 2.02357 11.9815 C 1.92697 11.8654 1.85267 10.8518 1.82853 9.32285 C 1.79713 7.33304 1.7521 6.85973 1.59712 6.8922 C 1.10277 6.99599 1.0083 6.64576 1.0083 4.70756 L 1.0083 2.81062 L 0.504151 2.81062 L 0 2.81062 L 0.0481566 15.6076 C 0.0920514 27.3019 0.117763 28.478 0.345476 29.2554 C 0.719648 30.5331 1.17792 31.1315 2.1196 31.5722 L 2.92604 31.9495 L 12.2867 31.9908 C 18.6921 32.019 21.8848 31.9829 22.3993 31.8762 C 23.4827 31.6516 24.0233 31.2364 24.5183 30.248 L 24.9445 29.3972 L 24.9838 17.4297 C 25.0272 4.28302 25.0465 4.61752 24.1728 3.41368 C 23.4857 2.46691 22.8567 2.21381 18.304 1.05251 C 14.1123 -0.0166305 13.532 -0.113902 12.7468 0.12091 Z M 14.7213 2.30824 C 15.0869 2.58659 15.2834 2.63976 15.699 2.57241 C 16.1152 2.50491 16.287 2.55156 16.5573 2.80495 C 16.8191 3.05054 16.9916 3.10074 17.3238 3.02785 C 17.6121 2.96461 17.8663 3.00843 18.1003 3.16142 C 18.2915 3.28649 18.6733 3.37369 18.9488 3.35526 C 19.2241 3.33668 19.5564 3.41013 19.6869 3.51832 C 19.828 3.63516 20.271 3.71868 20.7779 3.72393 C 21.5311 3.73172 21.6714 3.77951 21.9738 4.13045 C 22.1707 4.35888 22.3165 4.70827 22.3165 4.95187 C 22.3165 5.43185 21.8169 6.01548 21.2988 6.14054 C 21.1163 6.18464 19.3144 5.84433 17.2947 5.38435 C 14.2026 4.68005 13.5663 4.49203 13.2675 4.19355 C 12.6298 3.55717 12.8714 2.44139 13.7222 2.09385 C 14.1549 1.91717 14.2282 1.93291 14.7213 2.30824 Z M 13.6057 12.837 C 13.7781 12.9498 15.0504 14.9971 16.4327 17.3863 C 18.4689 20.9061 18.946 21.8316 18.946 22.2625 C 18.946 22.9004 18.627 23.4269 18.0117 23.8054 C 17.5788 24.0715 17.3181 24.0827 12.4174 24.0467 L 7.27703 24.009 L 6.84078 23.5917 C 6.36219 23.1338 6.10167 22.4232 6.22838 21.9209 C 6.37768 21.3294 11.2472 13.0453 11.5696 12.8344 C 12.1982 12.4233 12.9748 12.4243 13.6057 12.837 Z M 11.8267 13.268 C 11.3475 13.6734 6.69048 21.8601 6.69048 22.2971 C 6.69048 22.5355 6.84987 22.8429 7.10571 23.0982 L 7.52093 23.5127 L 12.5857 23.5127 L 17.6506 23.5127 L 18.0658 23.0982 C 18.3239 22.8406 18.481 22.5359 18.481 22.2929 C 18.481 21.852 13.8287 13.6775 13.3447 13.268 C 13.1834 13.1315 12.8419 13.0199 12.5857 13.0199 C 12.3296 13.0199 11.988 13.1315 11.8267 13.268 Z M 13.1467 16.3875 C 12.9125 20.0233 12.945 19.826 12.5795 19.826 C 12.1746 19.826 12.1388 19.6556 12.0209 17.1674 L 11.9385 15.4304 L 12.5735 15.4304 L 13.2085 15.4304 L 13.1467 16.3875 Z M 12.9503 20.6818 C 13.4494 20.9485 13.1615 21.953 12.5857 21.953 C 12.3083 21.953 11.9465 21.5517 11.9465 21.244 C 11.9465 20.9625 12.3008 20.535 12.5342 20.535 C 12.6119 20.535 12.7991 20.6011 12.9503 20.6818 Z" fill="#FFFFFF" fill-rule="evenodd" clip-rule="evenodd"/></svg>