<svg version="1.1" width="31" height="31" viewBox="0 0 31 31" xmlns="http://www.w3.org/2000/svg" xmlns:xlink="http://www.w3.org/1999/xlink" fill="none" overflow="hidden"><path d=" M 15.5 15.5 C 13.3687 15.5 11.5443 14.7411 10.0266 13.2234 C 8.50885 11.7057 7.75 9.88125 7.75 7.75 C 7.75 5.61875 8.50885 3.79427 10.0266 2.27656 C 11.5443 0.758855 13.3687 0 15.5 0 C 17.6313 0 19.4557 0.758855 20.9734 2.27656 C 22.4911 3.79427 23.25 5.61875 23.25 7.75 C 23.25 9.88125 22.4911 11.7057 20.9734 13.2234 C 19.4557 14.7411 17.6313 15.5 15.5 15.5 Z M 3.875 31 C 2.80938 31 1.89746 30.6209 1.13925 29.8627 C 0.37975 29.1032 0 28.1906 0 27.125 L 0 25.575 C 0 24.4771 0.282875 23.4676 0.848625 22.5467 C 1.41308 21.627 2.16354 20.925 3.1 20.4406 C 5.10208 19.4396 7.13646 18.6885 9.20312 18.1873 C 11.2698 17.6874 13.3687 17.4375 15.5 17.4375 C 17.6313 17.4375 19.7302 17.6874 21.7969 18.1873 C 23.8635 18.6885 25.8979 19.4396 27.9 20.4406 C 28.8365 20.925 29.5869 21.627 30.1514 22.5467 C 30.7171 23.4676 31 24.4771 31 25.575 L 31 27.125 C 31 28.1906 30.6209 29.1032 29.8627 29.8627 C 29.1032 30.6209 28.1906 31 27.125 31 L 3.875 31 Z" fill="#FFFFFF"/></svg>