<svg version="1.1" width="30" height="41" viewBox="0 0 30 41" xmlns="http://www.w3.org/2000/svg" xmlns:xlink="http://www.w3.org/1999/xlink" fill="none" overflow="hidden"><path d=" M 14.8909 0.0757525 C 13.0919 0.386005 11.7898 1.82459 11.6065 3.70482 C 11.2255 7.61308 16.1329 9.66735 18.7729 6.70451 C 19.588 5.78958 19.786 5.27519 19.786 4.07219 C 19.786 1.37426 17.6191 -0.394836 14.8909 0.0757525 Z M 13.3711 9.1082 C 12.6966 9.2012 11.9036 9.44778 11.6089 9.65577 C 11.0973 10.0168 9.17684 11.9456 7.58947 13.6929 L 6.84718 14.5098 L 3.82027 14.5098 C 1.05417 14.5098 0.759487 14.543 0.40156 14.8957 C -0.181539 15.4703 -0.120645 16.5029 0.525895 17.004 C 1.00463 17.3752 1.29696 17.404 4.58273 17.404 L 8.12381 17.404 L 9.66301 15.8604 C 10.5097 15.0115 11.2394 14.3169 11.2845 14.3169 C 11.3295 14.3169 11.3665 20.1307 11.3665 27.2366 C 11.3665 40.0719 11.3692 40.1588 11.7736 40.53 C 12.2625 40.9788 13.0285 41.1146 13.8655 40.901 C 15.0926 40.5877 15.0867 40.6259 15.0867 32.7964 L 15.0867 25.7006 L 15.6741 25.7006 L 16.2616 25.7006 L 16.2616 32.8481 L 16.2616 39.9959 L 16.7423 40.4694 C 17.4379 41.1551 18.8111 41.1733 19.5412 40.5064 L 19.9818 40.104 L 19.9818 27.307 C 19.9818 20.2686 20.0372 14.5098 20.1048 14.5098 C 20.1725 14.5098 20.8349 15.0742 21.577 15.764 L 22.9261 17.0181 L 25.8596 17.0181 C 28.5319 17.0181 28.8278 16.9838 29.1845 16.6322 C 29.4269 16.3934 29.5761 15.9891 29.5761 15.571 C 29.5761 14.3319 29.1358 14.1245 26.4922 14.1195 L 24.1916 14.1149 L 21.9633 12.1106 C 19.0866 9.52284 18.3768 9.14023 16.2412 9.02639 C 15.337 8.97816 14.0455 9.01501 13.3711 9.1082 Z M 24.6159 12.5162 C 24.544 12.5868 24.4853 12.8907 24.4853 13.1915 L 24.4853 13.7381 L 26.1496 13.7381 L 27.8139 13.7381 L 27.8139 13.0628 L 27.8139 12.3875 L 26.2802 12.3875 C 25.4365 12.3875 24.6875 12.4453 24.6159 12.5162 Z M 22.6134 17.8771 C 22.1973 18.5026 21.744 20.0145 21.744 20.7761 C 21.744 22.5486 22.9341 24.5257 24.4189 25.2201 C 25.4647 25.709 27.0131 25.5356 28.0571 24.8126 C 29.9184 23.5236 30.5622 20.5849 29.4608 18.4065 L 28.9537 17.404 L 25.9409 17.404 C 22.959 17.404 22.9247 17.4088 22.6134 17.8771 Z" fill="#FFFFFF" fill-rule="evenodd" clip-rule="evenodd"/></svg>