<svg version="1.1" width="32" height="32" viewBox="0 0 32 32" xmlns="http://www.w3.org/2000/svg" xmlns:xlink="http://www.w3.org/1999/xlink" fill="none" overflow="hidden"><path d=" M 1.0831 0.409701 C 0.725805 0.63476 0.3361 1.00698 0.216865 1.2373 C 0.0719492 1.51689 0 5.12519 0 12.1111 C 0 21.5694 0.0330185 22.6242 0.346087 23.1716 C 0.969777 24.2621 1.76814 24.4209 6.62824 24.4209 C 10.2624 24.4209 11.0063 24.4714 11.0063 24.7181 C 11.0063 25.6179 10.3182 30.0399 10.1433 30.2631 C 10.0068 30.4376 9.33232 30.5263 8.1416 30.5263 C 6.51084 30.5263 6.33372 30.5659 6.21346 30.9574 C 5.89285 32.0006 5.88654 32 15.9999 32 C 26.1133 32 26.1069 32.0006 25.7863 30.9574 C 25.6659 30.5652 25.4892 30.5263 23.8282 30.5263 C 22.1212 30.5263 21.9914 30.4955 21.8318 30.0526 C 21.577 29.345 20.976 24.8308 21.1074 24.6112 C 21.1702 24.5065 23.1401 24.4209 25.4855 24.4209 C 30.2227 24.4209 31.0331 24.2566 31.6537 23.1716 C 31.9668 22.624 31.9998 21.5667 31.9998 12.0664 C 31.9998 0.552231 32.0457 0.992664 30.7746 0.313699 C 30.2685 0.0433757 28.1831 -0.000624955 15.9591 6.64031e-06 C 2.23163 0.000638236 1.70965 0.0151648 1.0831 0.409701 Z M 30.1789 1.69079 C 30.5582 1.90048 30.573 2.21712 30.573 10.1121 L 30.573 18.3154 L 15.9999 18.3154 L 1.42674 18.3154 L 1.42674 10.1152 C 1.42674 2.52744 1.45344 1.89879 1.78343 1.70026 C 2.27993 1.40152 29.6391 1.39246 30.1789 1.69079 Z M 17.1134 21.0378 C 17.4056 21.602 16.8808 22.105 15.9999 22.105 C 15.119 22.105 14.5941 21.602 14.8864 21.0378 C 15.0458 20.73 15.3165 20.6313 15.9999 20.6313 C 16.6833 20.6313 16.954 20.73 17.1134 21.0378 Z" fill="#FFFFFF" fill-rule="evenodd" clip-rule="evenodd"/></svg>