<svg version="1.1" width="28" height="28" viewBox="0 0 28 28" xmlns="http://www.w3.org/2000/svg" xmlns:xlink="http://www.w3.org/1999/xlink" fill="none" overflow="hidden"><path d=" M 14 0 C 10.287 0 6.72601 1.475 4.10051 4.10051 C 1.475 6.72601 0 10.287 0 14 C 0 17.713 1.475 21.274 4.10051 23.8995 C 6.72601 26.525 10.287 28 14 28 C 17.713 28 21.274 26.525 23.8995 23.8995 C 26.525 21.274 28 17.713 28 14 C 28 10.287 26.525 6.72601 23.8995 4.10051 C 21.274 1.475 17.713 0 14 0 L 14 0 Z M 1.72667 15.0578 L 5.63111 15.0578 C 5.69333 16.4733 5.89089 17.8796 6.22222 19.2578 L 2.86222 19.2578 C 2.23565 17.9369 1.85105 16.5144 1.72667 15.0578 Z M 15.0578 6.65778 L 15.0578 1.85111 C 16.5568 2.42079 17.7886 3.53052 18.5111 4.96222 C 18.83 5.502 19.1116 6.06356 19.3511 6.64222 L 15.0578 6.65778 Z M 20.0667 8.75778 C 20.4276 10.1313 20.6422 11.5391 20.7044 12.9578 L 15.0578 12.9578 L 15.0578 8.75778 L 20.0667 8.75778 Z M 12.9422 1.85111 L 12.9422 6.65778 L 8.64889 6.65778 C 8.88885 6.07864 9.16955 5.51723 9.48889 4.97778 C 10.2083 3.54022 11.4405 2.42458 12.9422 1.85111 Z M 12.9422 8.75778 L 12.9422 12.9578 L 7.31111 12.9578 C 7.37333 11.5391 7.588 10.1313 7.94889 8.75778 L 12.9422 8.75778 Z M 5.63111 12.9422 L 1.72667 12.9422 C 1.85105 11.4856 2.23565 10.0631 2.86222 8.74222 L 6.22222 8.74222 C 5.89025 10.1199 5.6923 11.5264 5.63111 12.9422 Z M 7.31111 15.0578 L 12.9422 15.0578 L 12.9422 19.2578 L 7.94889 19.2578 C 7.58806 17.8843 7.37426 16.4764 7.31111 15.0578 Z M 12.9578 21.28 L 12.9578 26.0867 C 11.4587 25.517 10.2269 24.4073 9.50445 22.9756 C 9.18511 22.4361 8.90441 21.8747 8.66444 21.2956 L 12.9578 21.28 Z M 15.0578 26.0867 L 15.0578 21.3578 L 19.3511 21.3578 C 19.1111 21.9369 18.8304 22.4983 18.5111 23.0378 C 17.7886 24.4695 16.5568 25.5792 15.0578 26.1489 L 15.0578 26.0867 Z M 15.0578 19.18 L 15.0578 14.98 L 20.6889 14.98 C 20.6257 16.3986 20.4119 17.8066 20.0511 19.18 L 15.0578 19.18 Z M 22.3844 14.98 L 26.2889 14.98 C 26.1645 16.4366 25.7799 17.8591 25.1533 19.18 L 21.7778 19.18 C 22.1044 17.8267 22.302 16.4469 22.3689 15.0578 L 22.3844 14.98 Z M 22.3844 12.88 C 22.3132 11.4898 22.1101 10.1095 21.7778 8.75778 L 25.1378 8.75778 C 25.7647 10.08 26.1489 11.5018 26.2733 12.9578 L 22.3844 12.88 Z M 23.94 6.65778 L 21.1556 6.65778 C 20.6517 5.24269 19.9215 3.9188 18.9933 2.73778 C 20.929 3.60668 22.6104 4.95608 23.8778 6.65778 L 23.94 6.65778 Z M 9.00667 2.73778 C 8.0785 3.9188 7.34825 5.24269 6.84444 6.65778 L 4.12222 6.65778 C 5.38957 4.95608 7.07096 3.60668 9.00667 2.73778 Z M 4.10667 21.4044 L 6.84444 21.4044 C 7.34825 22.8195 8.0785 24.1434 9.00667 25.3244 C 7.06561 24.4425 5.38369 23.0766 4.12222 21.3578 L 4.10667 21.4044 Z M 18.9778 25.3244 C 19.9059 24.1434 20.6362 22.8195 21.14 21.4044 L 23.8778 21.4044 C 22.6027 23.0833 20.922 24.4108 18.9933 25.2622 L 18.9778 25.3244 Z" fill="#FFFFFF"/></svg>