<svg version="1.1" width="28" height="24" viewBox="0 0 28 24" xmlns="http://www.w3.org/2000/svg" xmlns:xlink="http://www.w3.org/1999/xlink" fill="none" overflow="hidden"><path d=" M 2.8 24 C 2.03 24 1.37107 23.7065 0.8232 23.1195 C 0.2744 22.5315 0 21.825 0 21 L 0 3 C 0 2.175 0.2744 1.469 0.8232 0.882 C 1.37107 0.294 2.03 0 2.8 0 L 25.2 0 C 25.97 0 26.6294 0.294 27.1782 0.882 C 27.7261 1.469 28 2.175 28 3 L 28 21 C 28 21.825 27.7261 22.5315 27.1782 23.1195 C 26.6294 23.7065 25.97 24 25.2 24 L 2.8 24 Z M 14 13.5 L 2.8 6 L 2.8 21 L 25.2 21 L 25.2 6 L 14 13.5 Z M 14 10.5 L 25.2 3 L 2.8 3 L 14 10.5 Z M 2.8 6 L 2.8 3 L 2.8 21 L 2.8 6 Z" fill="#FFFFFF"/></svg>