<svg version="1.1" width="28" height="28" viewBox="0 0 28 28" xmlns="http://www.w3.org/2000/svg" xmlns:xlink="http://www.w3.org/1999/xlink" fill="none" overflow="hidden"><path d=" M 20.1904 28 C 9.05762 28 0 18.9424 0 7.80964 C 0.00420963 5.90005 0.701718 4.05696 1.96284 2.62305 C 3.22397 1.18913 4.96289 0.261961 6.85631 0.0139226 C 7.33898 -0.0395945 7.82615 0.0620274 8.24717 0.304051 C 8.66819 0.546075 9.00117 0.915919 9.19783 1.35995 L 12.0161 7.93583 C 12.1623 8.27716 12.2209 8.6496 12.1866 9.01933 C 12.1523 9.38907 12.0262 9.74438 11.8198 10.053 L 9.49227 13.6144 C 10.5462 15.7533 12.2828 17.48 14.4277 18.5217 L 17.947 16.1802 C 18.2553 15.9724 18.6115 15.8466 18.9819 15.8147 C 19.3524 15.7828 19.7249 15.8459 20.0642 15.998 L 26.6401 18.8022 C 27.0841 18.9988 27.4539 19.3318 27.6959 19.7528 C 27.938 20.1739 28.0396 20.661 27.9861 21.1437 C 27.738 23.0371 26.8109 24.776 25.377 26.0372 C 23.943 27.2983 22.0999 27.9958 20.1904 28 Z M 7.13673 2.24327 C 5.78363 2.41721 4.54031 3.07839 3.63958 4.103 C 2.73885 5.12761 2.24247 6.44541 2.24337 7.80964 C 2.24709 12.5683 4.13912 17.1311 7.50402 20.496 C 10.8689 23.8609 15.4317 25.7529 20.1904 25.7566 C 21.5546 25.7575 22.8724 25.2611 23.897 24.3604 C 24.9216 23.4597 25.5828 22.2164 25.7567 20.8633 L 19.1808 18.0591 L 15.6756 20.4006 C 15.353 20.6138 14.9809 20.74 14.5952 20.7671 C 14.2095 20.7941 13.8234 20.721 13.4743 20.5548 C 10.8621 19.2912 8.74906 17.1881 7.47324 14.5818 C 7.30502 14.2339 7.22954 13.8484 7.25411 13.4627 C 7.27867 13.0771 7.40245 12.7043 7.61345 12.3805 L 9.95497 8.81916 L 7.13673 2.24327 Z" fill="#FFFFFF"/></svg>