<svg version="1.1" width="630" height="114" viewBox="0 0 630 114" xmlns="http://www.w3.org/2000/svg" xmlns:xlink="http://www.w3.org/1999/xlink" fill="none" overflow="hidden"><path d=" M 174.989 4.75 C 174.64 7.363 173.943 10.625 173.44 12 C 172.937 13.375 171.851 18.775 171.027 24 C 170.204 29.225 169.061 35.75 168.487 38.5 C 167.914 41.25 167.004 46.65 166.466 50.5 C 165.928 54.35 164.848 60.2 164.067 63.5 C 163.285 66.8 162.344 72.313 161.975 75.75 L 161.304 82 L 165.801 82 L 170.299 82 L 171.788 74.75 C 173.35 67.15 177.827 43.404 179.471 34 C 180.579 27.665 182.361 18.077 183.373 13 L 184.071 9.5 L 194.178 9.216 C 205.133 8.909 205.447 8.715 205.486 2.25 C 205.5 0.016 205.391 0 190.561 0 L 175.623 0 L 174.989 4.75 Z M 469.028 1.954 C 468.704 2.479 468.743 4.166 469.115 5.704 C 470.838 12.823 476.907 16.765 484.075 15.42 C 489.117 14.474 495.5 8.094 495.5 4 C 495.5 1.238 495.222 1 492 1 C 490.075 1 488.5 1.493 488.5 2.096 C 488.5 2.698 487.569 4.498 486.432 6.096 C 483 10.915 476.5 9.169 476.5 3.429 C 476.5 1.328 476.036 1 473.059 1 C 471.166 1 469.353 1.429 469.028 1.954 Z M 211.25 22.162 C 209.738 22.715 208.5 23.579 208.5 24.083 C 208.5 24.587 207.936 25 207.247 25 C 204.04 25 197.851 34.251 194.543 43.986 C 191.63 52.559 191.351 67.777 194.004 73.367 C 196.907 79.484 201.097 82 208.384 82 C 215.92 82 223.1 78.928 221.969 76.187 C 221.586 75.259 221.037 73.676 220.749 72.669 C 220.369 71.343 219.643 71.013 218.112 71.471 C 207.969 74.51 204.053 72.98 202.471 65.359 C 201.12 58.852 201.847 56 204.857 56 C 209.01 56 218.56 53.016 221.6 50.768 C 227.31 46.546 229.091 41.622 228.64 31.302 C 228.467 27.342 224.83 23.242 220.353 21.958 C 216.347 20.809 214.864 20.842 211.25 22.162 Z M 345 21.532 C 344.45 21.693 342.828 22.082 341.395 22.395 C 338.229 23.088 331.585 29.194 328.671 34.091 C 324.534 41.041 322.131 50.835 322.063 61.018 C 321.964 75.933 325.861 82.176 335.343 82.29 C 340.566 82.353 345.216 80.298 348.941 76.28 C 358.747 65.705 363.806 39.541 358.238 28.202 C 356.164 23.977 348.99 20.362 345 21.532 Z M 548.865 22.048 C 545.44 22.761 539.5 26.579 539.5 28.068 C 539.5 30.107 536.887 28.743 534.987 25.711 C 533.371 23.134 532.206 22.437 529.082 22.18 C 523.402 21.714 520.963 22.604 516.965 26.602 L 513.392 30.175 L 513.696 26.338 L 514 22.5 L 510 22.5 L 506 22.5 L 505.324 29.335 C 504.953 33.094 504.349 36.919 503.982 37.835 C 503.615 38.751 502.724 43.1 502.002 47.5 C 501.28 51.9 499.736 60.884 498.57 67.464 C 497.404 74.044 496.672 80.007 496.944 80.714 C 497.218 81.428 499.018 82 500.993 82 C 505.492 82 506.044 80.7 508.634 64 C 511.28 46.944 513.819 39.173 518.4 34.111 C 522.806 29.242 526.131 28.681 527.124 32.639 C 527.932 35.859 525.804 54.096 524.464 55.436 C 523.934 55.966 523.492 57.773 523.483 59.45 C 523.474 61.127 522.662 66.435 521.678 71.245 C 519.689 80.975 520.021 82 525.165 82 C 529.07 82 529.979 80.576 530.904 73 C 531.273 69.975 532 66.15 532.519 64.5 C 533.038 62.85 533.881 58.506 534.392 54.847 C 535.676 45.661 539.199 36.532 542.831 32.981 C 548.561 27.378 551.964 29.715 551.173 38.712 C 550.525 46.077 546.969 67.647 545.575 72.669 C 544.99 74.776 544.509 77.737 544.506 79.25 C 544.5 81.786 544.807 82 548.441 82 C 550.609 82 552.746 81.438 553.191 80.75 C 553.942 79.59 555.585 71.244 558.949 51.5 C 559.698 47.1 560.736 41.174 561.255 38.331 C 561.934 34.609 561.847 32.14 560.944 29.514 C 558.635 22.799 555.265 20.716 548.865 22.048 Z M 244.739 23.25 C 244.185 23.938 243.206 27.875 242.562 32 C 241.918 36.125 240.983 40.85 240.483 42.5 C 239.983 44.15 239.067 48.804 238.446 52.842 C 236.999 62.253 233.091 69.993 228.772 72 C 225.86 73.353 225.541 73.93 225.522 77.881 L 225.5 82.262 L 229.242 81.654 C 231.3 81.32 233.138 80.587 233.325 80.024 C 233.513 79.461 234.226 79 234.909 79 C 237.974 79 243.535 70.011 246.174 60.791 C 247.007 57.881 248.517 50.614 249.529 44.641 C 250.541 38.669 251.61 33.156 251.903 32.391 C 252.261 31.458 254.094 31 257.469 31 C 262.368 31 262.5 31.077 262.5 33.935 C 262.5 35.549 262.074 37.989 261.554 39.358 C 261.034 40.726 259.905 46.268 259.046 51.673 C 258.187 57.078 256.837 64.875 256.045 69 C 255.253 73.125 254.582 77.737 254.553 79.25 C 254.504 81.786 254.801 82 258.378 82 C 260.51 82 262.707 81.437 263.259 80.75 C 264.212 79.564 266.457 68.038 270.513 43.5 C 271.513 37.45 272.852 30.772 273.488 28.659 C 275.458 22.117 275.214 22 259.654 22 C 249.73 22 245.457 22.358 244.739 23.25 Z M 284.972 23.25 C 284.324 24.991 282.763 32.88 280.964 43.5 C 280.126 48.45 278.775 55.425 277.962 59 C 276.067 67.332 276.108 70.979 278.155 76.096 C 280.202 81.212 284.286 83.289 289.838 82.037 C 293.742 81.156 298.312 78.575 300.012 76.291 C 300.764 75.28 301.02 75.773 301.012 78.216 C 301.001 81.219 301.289 81.528 304.377 81.823 C 306.235 82 308.197 81.703 308.738 81.162 C 309.278 80.622 310.79 73.051 312.096 64.34 C 313.402 55.628 315.11 45.125 315.89 41 C 316.671 36.875 317.465 31.025 317.655 28 L 318 22.5 L 313.783 22.194 C 309.233 21.864 309.355 21.706 308.141 29.5 C 303.963 56.315 301.202 65.977 296.497 70.25 C 293.397 73.065 289.159 73.875 287.93 71.887 C 286.851 70.141 287.357 60.448 288.881 53.668 C 289.643 50.276 290.819 43.675 291.493 39 C 292.167 34.325 293.171 29.271 293.723 27.768 C 295.276 23.544 294.146 22 289.5 22 C 287.165 22 285.239 22.531 284.972 23.25 Z M 374.595 33.724 C 373.363 40.201 372.147 46.85 371.893 48.5 C 370.9 54.944 367.262 66.606 365.614 68.626 C 364.661 69.795 362.396 71.52 360.581 72.458 C 357.66 73.969 357.352 74.512 357.891 77.207 C 358.226 78.881 358.5 80.644 358.5 81.125 C 358.5 82.777 362.543 81.998 366.309 79.62 C 370.159 77.19 375.5 71.028 375.5 69.017 C 375.5 68.403 376.15 66.644 376.944 65.108 C 378.252 62.578 379.844 55.452 382.551 40 C 384.148 30.883 384.799 30 389.92 30 C 392.374 30 394.585 30.337 394.832 30.75 C 395.28 31.495 393.599 42.107 390.912 55.5 C 388.094 69.552 386.608 80.508 387.412 81.312 C 387.866 81.766 389.971 81.993 392.091 81.818 L 395.947 81.5 L 397.16 74.5 C 397.828 70.65 399.286 62.775 400.401 57 C 404.005 38.33 405.346 30.581 405.676 26.5 L 406 22.5 L 391.417 22.224 L 376.834 21.948 L 374.595 33.724 Z M 427.995 24.326 C 425.792 25.522 422.867 27.65 421.495 29.056 C 418.218 32.413 413.5 39.612 413.5 41.256 C 413.5 41.97 412.897 43.443 412.16 44.527 C 409.043 49.113 407.43 66.783 409.476 73.917 C 411.087 79.533 414.136 82 419.464 82 C 423.457 82 424.683 81.453 428.54 77.954 L 433 73.908 L 433.31 78.011 C 433.618 82.081 433.65 82.111 437.31 81.807 L 441 81.5 L 441.741 75 C 443.17 62.468 446.877 40.53 448.395 35.621 C 450.376 29.215 450.786 23.796 449.359 22.892 C 448.611 22.418 444.4 22.058 440 22.091 C 433.761 22.138 431.118 22.63 427.995 24.326 Z M 461.145 22.766 C 460.885 23.187 460.181 27.058 459.582 31.368 C 458.982 35.678 458.265 39.571 457.989 40.018 C 457.712 40.466 456.543 46.382 455.391 53.166 C 451.697 74.915 453.881 82.366 463.892 82.165 C 468.458 82.074 473.783 79.359 475.982 76 C 476.748 74.83 477.079 75.271 477.482 78 C 477.957 81.209 478.282 81.5 481.386 81.5 C 484.615 81.5 484.83 81.268 486.03 76.5 C 486.721 73.75 487.601 68.575 487.984 65 C 488.367 61.425 489.131 56.475 489.682 54 C 491.094 47.654 494.566 27.992 494.802 25 C 494.986 22.677 494.684 22.5 490.537 22.5 C 486.399 22.5 486.025 22.718 485.383 25.5 C 483.982 31.581 482.329 40.743 480.997 49.82 C 480.244 54.946 479.212 59.671 478.702 60.32 C 478.193 60.969 477.505 62.625 477.175 64 C 476.844 65.375 475.206 67.991 473.535 69.813 C 471.09 72.48 469.863 73.065 467.249 72.813 C 464.084 72.508 463.992 72.365 463.699 67.282 C 463.533 64.412 463.903 59.687 464.521 56.782 C 465.139 53.877 466.272 47.706 467.038 43.069 C 467.804 38.432 468.896 33.302 469.465 31.67 C 470.034 30.037 470.5 27.194 470.5 25.351 C 470.5 22.053 470.43 22 466.059 22 C 463.616 22 461.405 22.345 461.145 22.766 Z M 438.881 29.807 C 439.939 31.52 434.756 57.268 432.173 63.129 C 429.842 68.421 425.652 73.002 423.161 72.985 C 418.718 72.953 418.005 71.576 418.145 63.291 C 418.339 51.711 423.09 39.267 429.721 32.967 C 433.211 29.651 437.805 28.067 438.881 29.807 Z M 218.347 31.867 C 220.993 34.162 221.055 36.039 218.615 40.051 C 216.027 44.306 213.442 45.909 207.951 46.662 C 203.36 47.291 203.283 47.257 204.014 44.902 C 205.93 38.725 209.533 33.233 212.688 31.677 C 214.51 30.78 216.044 30.035 216.097 30.023 C 216.15 30.01 217.163 30.84 218.347 31.867 Z M 348.778 32.011 C 352.608 36.485 349.124 61.102 343.553 68.926 C 339.063 75.231 334.246 75.348 332.537 69.192 C 331.14 64.164 331.24 59.536 332.935 50.675 C 334.61 41.923 337.577 35.413 341.331 32.255 C 344.634 29.477 346.554 29.414 348.778 32.011 Z M 53.5 84.818 C 53.5 86.25 69.257 87.488 125.5 90.475 C 141.175 91.307 158.95 92.433 165 92.976 C 171.05 93.519 188.825 94.439 204.5 95.02 C 220.175 95.602 240.425 96.534 249.5 97.092 C 317.394 101.268 486.884 102.926 567.369 100.201 C 603.553 98.976 606.172 98.761 613.369 96.428 C 617.566 95.067 622.418 93.289 624.151 92.477 C 625.884 91.665 627.797 91 628.401 91 C 629.006 91 629.5 89.641 629.5 87.981 C 629.5 85.374 629.193 85.028 627.25 85.444 C 622.858 86.385 603.718 87.96 583.546 89.04 C 572.296 89.642 562.777 90.329 562.393 90.566 C 562.009 90.804 540.163 91.699 513.847 92.556 C 470.802 93.958 322.684 94.8 320.706 93.655 C 320.318 93.43 299.3 92.939 274 92.563 C 248.7 92.187 219.45 91.453 209 90.932 C 198.55 90.411 172.627 89.325 151.394 88.518 C 130.16 87.711 105.635 86.613 96.894 86.078 C 64.349 84.085 53.5 83.77 53.5 84.818 Z M 4 87.99 C 9.249 89.002 15.816 89.654 34 90.968 C 42.25 91.564 52.6 92.483 57 93.009 C 61.4 93.536 72.875 94.453 82.5 95.048 C 92.125 95.643 104.725 96.559 110.5 97.083 C 116.275 97.607 127.525 98.466 135.5 98.991 C 143.475 99.517 162.15 100.871 177 102 C 191.85 103.13 211.875 104.485 221.5 105.011 C 231.125 105.538 246.425 106.404 255.5 106.936 C 276.933 108.193 311.834 109.949 337 111.037 C 377.36 112.781 481.024 114.159 522.5 113.503 C 563.416 112.855 565.261 112.743 572 110.497 C 575.85 109.214 580.462 107.866 582.25 107.502 C 584.038 107.139 585.5 106.477 585.5 106.032 C 585.5 105.587 586.997 104.942 588.826 104.599 C 590.656 104.255 593.018 103.32 594.076 102.519 C 595.898 101.14 595.842 101.062 593 101.04 C 591.35 101.028 580.55 101.678 569 102.486 C 508.218 106.739 381.513 106.964 294 102.976 C 280.8 102.374 254.7 101.244 236 100.463 C 217.3 99.683 190.3 98.378 176 97.564 C 161.7 96.75 145.95 95.88 141 95.63 C 136.05 95.381 125.25 94.69 117 94.096 C 108.75 93.501 92.775 92.569 81.5 92.024 C 70.225 91.479 57.85 90.588 54 90.044 C 46.628 89.003 10.827 86.894 4 87.099 L 0 87.219 L 4 87.99 Z" fill="#FFFFFF" fill-rule="evenodd" clip-rule="evenodd"/></svg>